<svg xmlns="http://www.w3.org/2000/svg" xmlns:xlink="http://www.w3.org/1999/xlink" width="120" height="160.2" viewBox="-110 -155.2 120 160.2"><title></title><style type="text/css">
#g1 circle.pindot {fill: none;stroke: none;pointer-events: fill;}#g1 rect, #g1 circle, #g1 ellipse, #g1 polyline, #g1 line, #g1 polygon, #g1 path {shape-rendering: crispEdges;}path, polyline, polygon {stroke-linejoin:round;}
path, polyline, polygon, line {stroke-linecap:round;}
rect, circle, ellipse, polyline, line, polygon, path {shape-rendering:crispEdges;}
</style>
<rect x="-110" y="-155.2" width="120" height="160.2" fill="#FFFFFF" stroke="none"/><g id="g1" c_spiceCmd="null" c_para="Prefix Start`1`" importFlag="0" c_portOfADImportHack="" c_transformList="" xmlns="http://www.w3.org/2000/svg"><g c_partid="part_annotation" id="gge4662" c_origin="-90,-134.81" c_shapetype="group" c_etype="pinpart"><text x="-90" y="-134.81" fill="#FF3366" font-family="Verdana" font-size="7.5pt" font-weight="undefined" font-style="undefined" dominant-baseline="" text-anchor="start" type="comment"  >A</text></g><g c_partid="part_annotation" id="gge4665" c_origin="-15,-135" c_shapetype="group" c_etype="pinpart"><text x="-15" y="-135" fill="#FF3366" font-family="Verdana" font-size="7.5pt" font-weight="undefined" font-style="undefined" dominant-baseline="" text-anchor="start" type="comment"  >B</text></g><g c_origin="-30,-95" c_para="package`AXIAL-0.4`nameAlias`Value(H)`BOM_Manufacturer Part`?`spicePre`L`spiceSymbolName`Inductor`" c_partid="part_import_gge4667" id="gge4667" c_shapetype="group" c_etype="pinpart" ><g c_partid="part_annotation" id="gge4669" display="none"><text c_note="note_name" x="-35.19" y="-102.33" fill="#000000" font-family="Arial" font-size="7pt" font-weight="" font-style="" dominant-baseline="" text-anchor="start"  >1m</text></g><g c_partid="part_annotation" id="gge4671" display="none"><text c_note="note_pre" x="-35.19" y="-111.49" fill="#000000" font-family="Arial" font-size="7pt" font-weight="" font-style="" dominant-baseline="" text-anchor="start"  >L1</text></g><g c_partid="part_pin" c_etype="pinpart"  c_show="show"  c_elec="0" c_spicepin="2" c_origin="-10,-95" id="gge4673" c_rotation="0"><circle c_pindot="true" class="pindot" cx="-10" cy="-95" r="2" fill="#4F4F4F" stroke="none" /><path d="M -10 -95 h -3" fill="none" stroke="#000000" stroke-width="1"/><text x="-17" y="-95" font-family="Verdana" font-size="7pt" fill="#000000" text-anchor="end" display="none"  >2</text><text x="-9" y="-99" font-family="Verdana" font-size="7pt" fill="#000000" text-anchor="start" display="none"  >2</text><circle cx="-10" cy="-95" r="3" stroke="#000000" fill="none" stroke-width="1" display="none" /><path d="M -13 -98 L -16 -95 L -13 -92" fill="none" stroke="#000000" stroke-width="1"  display="none" /></g><g c_partid="part_pin" c_etype="pinpart"  c_show="show"  c_elec="0" c_spicepin="1" c_origin="-50,-95" id="gge4680" c_rotation="180"><circle c_pindot="true" class="pindot" cx="-50" cy="-95" r="2" fill="#4F4F4F" stroke="none" /><path d="M -50 -95 h 3" fill="none" stroke="#000000" stroke-width="1"/><text x="-43" y="-95" font-family="Verdana" font-size="7pt" fill="#000000" text-anchor="start" display="none"  >1</text><text x="-51" y="-99" font-family="Verdana" font-size="7pt" fill="#000000" text-anchor="end" display="none"  >1</text><circle cx="-50" cy="-95" r="3" stroke="#000000" fill="none" stroke-width="1" display="none" /><path d="M -47 -92 L -44 -95 L -47 -98" fill="none" stroke="#000000" stroke-width="1"  display="none" /></g><path d="M -46.883 -95.068 A 4 3.9 0 1 1 -38.918 -95.064" id="gge4687"   stroke="#000000" stroke-width="1" c_helper_type="arc1" fill="none" /><path d="M -38.4 -95.071 A 4 3.9 0 1 1 -30.435 -95.066" id="gge4688"   stroke="#000000" stroke-width="1" c_helper_type="arc1" fill="none" /><path d="M -29.933 -95.071 A 4 3.9 0 1 1 -21.968 -95.066" id="gge4689"   stroke="#000000" stroke-width="1" c_helper_type="arc1" fill="none" /><path d="M -21.3 -95.069 A 4 3.9 0 1 1 -13.335 -95.064" id="gge4690"   stroke="#000000" stroke-width="1" c_helper_type="arc1" fill="none" /></g><g c_origin="-10,-75" c_para="package`AXIAL-0.4`nameAlias`Value(H)`BOM_Manufacturer Part`?`spicePre`L`spiceSymbolName`Inductor`" c_partid="part_import_gge4695" id="gge4695" c_shapetype="group" c_etype="pinpart" c_rotation="270"><g c_partid="part_annotation" id="gge4697" display="none"><text c_note="note_name" x="-3.67" y="-62.6" fill="#000000" font-family="Arial" font-size="7pt" font-weight="" font-style="" dominant-baseline="" text-anchor="start"  >1m</text></g><g c_partid="part_annotation" id="gge4699" display="none"><text c_note="note_pre" x="-3.67" y="-71.76" fill="#000000" font-family="Arial" font-size="7pt" font-weight="" font-style="" dominant-baseline="" text-anchor="start"  >L2</text></g><g c_partid="part_pin" c_etype="pinpart"  c_show="show"  c_elec="0" c_spicepin="2" c_origin="-10,-55" id="gge4701" c_rotation="270"><circle c_pindot="true" class="pindot" cx="-10" cy="-55" r="2" fill="#4F4F4F" stroke="none" /><path d="M-10,-55 v-3" fill="none" stroke="#000000" stroke-width="1"/><text x="-10" y="-62" font-family="Verdana" font-size="7pt" fill="#000000" text-anchor="start" display="none" transform="rotate(270,-10,-62)" >2</text><text x="-14" y="-54" font-family="Verdana" font-size="7pt" fill="#000000" text-anchor="end" display="none" transform="rotate(270,-14,-54)" >2</text><circle cx="-10" cy="-55" r="3" stroke="#000000" fill="none" stroke-width="1" display="none" /><path d="M -7 -58 L -10 -61 L -13 -58" fill="none" stroke="#000000" stroke-width="1"  display="none" /></g><g c_partid="part_pin" c_etype="pinpart"  c_show="show"  c_elec="0" c_spicepin="1" c_origin="-10,-95" id="gge4708" c_rotation="90"><circle c_pindot="true" class="pindot" cx="-10" cy="-95" r="2" fill="#4F4F4F" stroke="none" /><path d="M-10,-95 v3" fill="none" stroke="#000000" stroke-width="1"/><text x="-10" y="-88" font-family="Verdana" font-size="7pt" fill="#000000" text-anchor="end" display="none" transform="rotate(270,-10,-88)" >1</text><text x="-14" y="-96" font-family="Verdana" font-size="7pt" fill="#000000" text-anchor="start" display="none" transform="rotate(270,-14,-96)" >1</text><circle cx="-10" cy="-95" r="3" stroke="#000000" fill="none" stroke-width="1" display="none" /><path d="M -13 -92 L -10 -89 L -7 -92" fill="none" stroke="#000000" stroke-width="1"  display="none" /></g><path d="M-9.932,-91.883 A3.9,4 0 1,1 -9.936,-83.918" id="gge4715"   stroke="#000000" stroke-width="1" c_helper_type="arc1" fill="none" /><path d="M-9.929,-83.4 A3.9,4 0 1,1 -9.934,-75.435" id="gge4716"   stroke="#000000" stroke-width="1" c_helper_type="arc1" fill="none" /><path d="M-9.929,-74.933 A3.9,4 0 1,1 -9.934,-66.968" id="gge4717"   stroke="#000000" stroke-width="1" c_helper_type="arc1" fill="none" /><path d="M-9.931,-66.3 A3.9,4 0 1,1 -9.936,-58.335" id="gge4718"   stroke="#000000" stroke-width="1" c_helper_type="arc1" fill="none" /></g><g c_origin="-50,-75" c_para="package`AXIAL-0.4`nameAlias`Value(H)`BOM_Manufacturer Part`?`spicePre`L`spiceSymbolName`Inductor`" c_partid="part_import_gge4720" id="gge4720" c_shapetype="group" c_etype="pinpart" c_rotation="90"><g c_partid="part_annotation" id="gge4722" display="none"><text c_note="note_name" x="-46" y="-62.6" fill="#000000" font-family="Arial" font-size="7pt" font-weight="" font-style="" dominant-baseline="" text-anchor="start"  >1m</text></g><g c_partid="part_annotation" id="gge4724" display="none"><text c_note="note_pre" x="-46" y="-71.76" fill="#000000" font-family="Arial" font-size="7pt" font-weight="" font-style="" dominant-baseline="" text-anchor="start"  >L3</text></g><g c_partid="part_pin" c_etype="pinpart"  c_show="show"  c_elec="0" c_spicepin="2" c_origin="-50,-95" id="gge4726" c_rotation="90"><circle c_pindot="true" class="pindot" cx="-50" cy="-95" r="2" fill="#4F4F4F" stroke="none" /><path d="M-50,-95 v3" fill="none" stroke="#000000" stroke-width="1"/><text x="-50" y="-88" font-family="Verdana" font-size="7pt" fill="#000000" text-anchor="end" display="none" transform="rotate(270,-50,-88)" >2</text><text x="-54" y="-96" font-family="Verdana" font-size="7pt" fill="#000000" text-anchor="start" display="none" transform="rotate(270,-54,-96)" >2</text><circle cx="-50" cy="-95" r="3" stroke="#000000" fill="none" stroke-width="1" display="none" /><path d="M -53 -92 L -50 -89 L -47 -92" fill="none" stroke="#000000" stroke-width="1"  display="none" /></g><g c_partid="part_pin" c_etype="pinpart"  c_show="show"  c_elec="0" c_spicepin="1" c_origin="-50,-55" id="gge4733" c_rotation="270"><circle c_pindot="true" class="pindot" cx="-50" cy="-55" r="2" fill="#4F4F4F" stroke="none" /><path d="M-50,-55 v-3" fill="none" stroke="#000000" stroke-width="1"/><text x="-50" y="-62" font-family="Verdana" font-size="7pt" fill="#000000" text-anchor="start" display="none" transform="rotate(270,-50,-62)" >1</text><text x="-54" y="-54" font-family="Verdana" font-size="7pt" fill="#000000" text-anchor="end" display="none" transform="rotate(270,-54,-54)" >1</text><circle cx="-50" cy="-55" r="3" stroke="#000000" fill="none" stroke-width="1" display="none" /><path d="M -47 -58 L -50 -61 L -53 -58" fill="none" stroke="#000000" stroke-width="1"  display="none" /></g><path d="M-50.068,-58.117 A3.9,4 0 1,1 -50.064,-66.082" id="gge4740"   stroke="#000000" stroke-width="1" c_helper_type="arc1" fill="none" /><path d="M-50.071,-66.6 A3.9,4 0 1,1 -50.066,-74.565" id="gge4741"   stroke="#000000" stroke-width="1" c_helper_type="arc1" fill="none" /><path d="M-50.071,-75.067 A3.9,4 0 1,1 -50.066,-83.032" id="gge4742"   stroke="#000000" stroke-width="1" c_helper_type="arc1" fill="none" /><path d="M-50.069,-83.7 A3.9,4 0 1,1 -50.064,-91.665" id="gge4743"   stroke="#000000" stroke-width="1" c_helper_type="arc1" fill="none" /></g><g c_origin="-70,-55" c_para="package`AXIAL-0.4`nameAlias`Value(H)`BOM_Manufacturer Part`?`spicePre`L`spiceSymbolName`Inductor`" c_partid="part_import_gge4745" id="gge4745" c_shapetype="group" c_etype="pinpart" ><g c_partid="part_annotation" id="gge4747" display="none"><text c_note="note_name" x="-75.19" y="-62.33" fill="#000000" font-family="Arial" font-size="7pt" font-weight="" font-style="" dominant-baseline="" text-anchor="start"  >1m</text></g><g c_partid="part_annotation" id="gge4749" display="none"><text c_note="note_pre" x="-75.19" y="-71.49" fill="#000000" font-family="Arial" font-size="7pt" font-weight="" font-style="" dominant-baseline="" text-anchor="start"  >L4</text></g><g c_partid="part_pin" c_etype="pinpart"  c_show="show"  c_elec="0" c_spicepin="2" c_origin="-50,-55" id="gge4751" c_rotation="0"><circle c_pindot="true" class="pindot" cx="-50" cy="-55" r="2" fill="#4F4F4F" stroke="none" /><path d="M-50,-55 h-3" fill="none" stroke="#000000" stroke-width="1"/><text x="-57" y="-55" font-family="Verdana" font-size="7pt" fill="#000000" text-anchor="end" display="none"  >2</text><text x="-49" y="-59" font-family="Verdana" font-size="7pt" fill="#000000" text-anchor="start" display="none"  >2</text><circle cx="-50" cy="-55" r="3" stroke="#000000" fill="none" stroke-width="1" display="none" /><path d="M -53 -58 L -56 -55 L -53 -52" fill="none" stroke="#000000" stroke-width="1"  display="none" /></g><g c_partid="part_pin" c_etype="pinpart"  c_show="show"  c_elec="0" c_spicepin="1" c_origin="-90,-55" id="gge4758" c_rotation="180"><circle c_pindot="true" class="pindot" cx="-90" cy="-55" r="2" fill="#4F4F4F" stroke="none" /><path d="M-90,-55 h3" fill="none" stroke="#000000" stroke-width="1"/><text x="-83" y="-55" font-family="Verdana" font-size="7pt" fill="#000000" text-anchor="start" display="none"  >1</text><text x="-91" y="-59" font-family="Verdana" font-size="7pt" fill="#000000" text-anchor="end" display="none"  >1</text><circle cx="-90" cy="-55" r="3" stroke="#000000" fill="none" stroke-width="1" display="none" /><path d="M -87 -52 L -84 -55 L -87 -58" fill="none" stroke="#000000" stroke-width="1"  display="none" /></g><path d="M-86.883,-55.068 A4,3.9 0 1,1 -78.918,-55.064" id="gge4765"   stroke="#000000" stroke-width="1" c_helper_type="arc1" fill="none" /><path d="M-78.4,-55.071 A4,3.9 0 1,1 -70.435,-55.066" id="gge4766"   stroke="#000000" stroke-width="1" c_helper_type="arc1" fill="none" /><path d="M-69.933,-55.071 A4,3.9 0 1,1 -61.968,-55.066" id="gge4767"   stroke="#000000" stroke-width="1" c_helper_type="arc1" fill="none" /><path d="M-61.3,-55.069 A4,3.9 0 1,1 -53.335,-55.064" id="gge4768"   stroke="#000000" stroke-width="1" c_helper_type="arc1" fill="none" /></g><g c_origin="-50,-35" c_para="package`AXIAL-0.4`nameAlias`Value(H)`BOM_Manufacturer Part`?`spicePre`L`spiceSymbolName`Inductor`" c_partid="part_import_gge4770" id="gge4770" c_shapetype="group" c_etype="pinpart" c_rotation="90"><g c_partid="part_annotation" id="gge4772" display="none"><text c_note="note_name" x="-46" y="-22.6" fill="#000000" font-family="Arial" font-size="7pt" font-weight="" font-style="" dominant-baseline="" text-anchor="start"  >1m</text></g><g c_partid="part_annotation" id="gge4774" display="none"><text c_note="note_pre" x="-46" y="-31.76" fill="#000000" font-family="Arial" font-size="7pt" font-weight="" font-style="" dominant-baseline="" text-anchor="start"  >L5</text></g><g c_partid="part_pin" c_etype="pinpart"  c_show="show"  c_elec="0" c_spicepin="2" c_origin="-50,-55" id="gge4776" c_rotation="90"><circle c_pindot="true" class="pindot" cx="-50" cy="-55" r="2" fill="#4F4F4F" stroke="none" /><path d="M-50,-55 v3" fill="none" stroke="#000000" stroke-width="1"/><text x="-50" y="-48" font-family="Verdana" font-size="7pt" fill="#000000" text-anchor="end" display="none" transform="rotate(270,-50,-48)" >2</text><text x="-54" y="-56" font-family="Verdana" font-size="7pt" fill="#000000" text-anchor="start" display="none" transform="rotate(270,-54,-56)" >2</text><circle cx="-50" cy="-55" r="3" stroke="#000000" fill="none" stroke-width="1" display="none" /><path d="M -53 -52 L -50 -49 L -47 -52" fill="none" stroke="#000000" stroke-width="1"  display="none" /></g><g c_partid="part_pin" c_etype="pinpart"  c_show="show"  c_elec="0" c_spicepin="1" c_origin="-50,-15" id="gge4783" c_rotation="270"><circle c_pindot="true" class="pindot" cx="-50" cy="-15" r="2" fill="#4F4F4F" stroke="none" /><path d="M-50,-15 v-3" fill="none" stroke="#000000" stroke-width="1"/><text x="-50" y="-22" font-family="Verdana" font-size="7pt" fill="#000000" text-anchor="start" display="none" transform="rotate(270,-50,-22)" >1</text><text x="-54" y="-14" font-family="Verdana" font-size="7pt" fill="#000000" text-anchor="end" display="none" transform="rotate(270,-54,-14)" >1</text><circle cx="-50" cy="-15" r="3" stroke="#000000" fill="none" stroke-width="1" display="none" /><path d="M -47 -18 L -50 -21 L -53 -18" fill="none" stroke="#000000" stroke-width="1"  display="none" /></g><path d="M-50.068,-18.117 A3.9,4 0 1,1 -50.064,-26.082" id="gge4790"   stroke="#000000" stroke-width="1" c_helper_type="arc1" fill="none" /><path d="M-50.071,-26.6 A3.9,4 0 1,1 -50.066,-34.565" id="gge4791"   stroke="#000000" stroke-width="1" c_helper_type="arc1" fill="none" /><path d="M-50.071,-35.067 A3.9,4 0 1,1 -50.066,-43.032" id="gge4792"   stroke="#000000" stroke-width="1" c_helper_type="arc1" fill="none" /><path d="M-50.069,-43.7 A3.9,4 0 1,1 -50.064,-51.665" id="gge4793"   stroke="#000000" stroke-width="1" c_helper_type="arc1" fill="none" /></g><g c_origin="-30,-15" c_para="package`AXIAL-0.4`nameAlias`Value(H)`BOM_Manufacturer Part`?`spicePre`L`spiceSymbolName`Inductor`" c_partid="part_import_gge4797" id="gge4797" c_shapetype="group" c_etype="pinpart" c_rotation="180"><g c_partid="part_annotation" id="gge4799" display="none"><text c_note="note_name" x="-35.19" y="-20" fill="#000000" font-family="Arial" font-size="7pt" font-weight="" font-style="" dominant-baseline="" text-anchor="start"  >1m</text></g><g c_partid="part_annotation" id="gge4801" display="none"><text c_note="note_pre" x="-35.19" y="-29.16" fill="#000000" font-family="Arial" font-size="7pt" font-weight="" font-style="" dominant-baseline="" text-anchor="start"  >L6</text></g><g c_partid="part_pin" c_etype="pinpart"  c_show="show"  c_elec="0" c_spicepin="2" c_origin="-50,-15" id="gge4803" c_rotation="180"><circle c_pindot="true" class="pindot" cx="-50" cy="-15" r="2" fill="#4F4F4F" stroke="none" /><path d="M-50,-15 h3" fill="none" stroke="#000000" stroke-width="1"/><text x="-43" y="-15" font-family="Verdana" font-size="7pt" fill="#000000" text-anchor="start" display="none"  >2</text><text x="-51" y="-19" font-family="Verdana" font-size="7pt" fill="#000000" text-anchor="end" display="none"  >2</text><circle cx="-50" cy="-15" r="3" stroke="#000000" fill="none" stroke-width="1" display="none" /><path d="M -47 -12 L -44 -15 L -47 -18" fill="none" stroke="#000000" stroke-width="1"  display="none" /></g><g c_partid="part_pin" c_etype="pinpart"  c_show="show"  c_elec="0" c_spicepin="1" c_origin="-10,-15" id="gge4810" c_rotation="0"><circle c_pindot="true" class="pindot" cx="-10" cy="-15" r="2" fill="#4F4F4F" stroke="none" /><path d="M-10,-15 h-3" fill="none" stroke="#000000" stroke-width="1"/><text x="-17" y="-15" font-family="Verdana" font-size="7pt" fill="#000000" text-anchor="end" display="none"  >1</text><text x="-9" y="-19" font-family="Verdana" font-size="7pt" fill="#000000" text-anchor="start" display="none"  >1</text><circle cx="-10" cy="-15" r="3" stroke="#000000" fill="none" stroke-width="1" display="none" /><path d="M -13 -18 L -16 -15 L -13 -12" fill="none" stroke="#000000" stroke-width="1"  display="none" /></g><path d="M-13.117,-14.932 A4,3.9 0 1,1 -21.082,-14.936" id="gge4817"   stroke="#000000" stroke-width="1" c_helper_type="arc1" fill="none" /><path d="M-21.6,-14.929 A4,3.9 0 1,1 -29.565,-14.934" id="gge4818"   stroke="#000000" stroke-width="1" c_helper_type="arc1" fill="none" /><path d="M-30.067,-14.929 A4,3.9 0 1,1 -38.032,-14.934" id="gge4819"   stroke="#000000" stroke-width="1" c_helper_type="arc1" fill="none" /><path d="M-38.7,-14.931 A4,3.9 0 1,1 -46.665,-14.936" id="gge4820"   stroke="#000000" stroke-width="1" c_helper_type="arc1" fill="none" /></g><polyline c_etype="wire" c_shapetype="line" points="-10 -15 -10 -55 -50 -55" stroke="#000000" id="gge4821" stroke-width="1"   fill="none" stroke-linecap="round" /><polyline c_etype="wire" c_shapetype="line" points="-50 -95 -90 -95 -90 -55 -90 -15 -50 -15" stroke="#000000" id="gge4824" stroke-width="1"   fill="none" stroke-linecap="round" /><polyline c_etype="wire" c_shapetype="line" points="-90 -130 -90 -95" stroke="#000000" id="gge4829" stroke-width="1"   fill="none" stroke-linecap="round" /><polyline c_etype="wire" c_shapetype="line" points="-10 -95 -10 -130" stroke="#000000" id="gge4831" stroke-width="1"   fill="none" stroke-linecap="round" /><rect id="gge4847" x="-100" y="-145"   width="100" height="140" stroke="#FFFFFF" stroke-width="1" fill="none" c_shapetype="line"  /><g c_partid="part_junction" c_etype="pinpart" c_origin="-90,-95" id="gge4830" c_shapetype="group"><circle c_pindot="true" class="pindot" cx="-90" cy="-95" r="2" fill="#4F4F4F" stroke="none"/><circle cx="-90" cy="-95" r="2.5" fill="#000000" stroke-width="1"/></g><g c_partid="part_junction" c_etype="pinpart" c_origin="-90,-55" id="gge4828" c_shapetype="group"><circle c_pindot="true" class="pindot" cx="-90" cy="-55" r="2" fill="#4F4F4F" stroke="none"/><circle cx="-90" cy="-55" r="2.5" fill="#000000" stroke-width="1"/></g><g c_partid="part_junction" c_etype="pinpart" c_origin="-50,-95" id="gge4827" c_shapetype="group"><circle c_pindot="true" class="pindot" cx="-50" cy="-95" r="2" fill="#4F4F4F" stroke="none"/><circle cx="-50" cy="-95" r="2.5" fill="#000000" stroke-width="1"/></g><g c_partid="part_junction" c_etype="pinpart" c_origin="-50,-55" id="gge4795" c_shapetype="group"><circle c_pindot="true" class="pindot" cx="-50" cy="-55" r="2" fill="#4F4F4F" stroke="none"/><circle cx="-50" cy="-55" r="2.5" fill="#000000" stroke-width="1"/></g><g c_partid="part_junction" c_etype="pinpart" c_origin="-10,-55" id="gge4823" c_shapetype="group"><circle c_pindot="true" class="pindot" cx="-10" cy="-55" r="2" fill="#4F4F4F" stroke="none"/><circle cx="-10" cy="-55" r="2.5" fill="#000000" stroke-width="1"/></g><g c_partid="part_junction" c_etype="pinpart" c_origin="-50,-15" id="gge4825" c_shapetype="group"><circle c_pindot="true" class="pindot" cx="-50" cy="-15" r="2" fill="#4F4F4F" stroke="none"/><circle cx="-50" cy="-15" r="2.5" fill="#000000" stroke-width="1"/></g><g c_partid="part_junction" c_etype="pinpart" c_origin="-10,-95" id="gge4832" c_shapetype="group"><circle c_pindot="true" class="pindot" cx="-10" cy="-95" r="2" fill="#4F4F4F" stroke="none"/><circle cx="-10" cy="-95" r="2.5" fill="#000000" stroke-width="1"/></g></g></svg>