<?xml version="1.0" encoding="UTF-8" standalone="no"?>
<svg
   xmlns:dc="http://purl.org/dc/elements/1.1/"
   xmlns:cc="http://creativecommons.org/ns#"
   xmlns:rdf="http://www.w3.org/1999/02/22-rdf-syntax-ns#"
   xmlns:svg="http://www.w3.org/2000/svg"
   xmlns="http://www.w3.org/2000/svg"
   id="svg4416"
   width="285pt"
   viewBox="0 0 285 420"
   version="1.1"
   height="420pt">
  <metadata
     id="metadata4463">
    <rdf:RDF>
      <cc:Work
         rdf:about="">
        <dc:format>image/svg+xml</dc:format>
        <dc:type
           rdf:resource="http://purl.org/dc/dcmitype/StillImage" />
        <dc:title></dc:title>
      </cc:Work>
    </rdf:RDF>
  </metadata>
  <defs
     id="defs4418">
    <style
       id="style4420"
       type="text/css">
*{stroke-linecap:butt;stroke-linejoin:round;}
  </style>
  </defs>
  <g
     style="stroke-linecap:butt;stroke-linejoin:round"
     id="line2d_1">
    <path
       id="path4431"
       style="fill:none;stroke:#000000;stroke-width:2;stroke-linecap:square;stroke-linejoin:round"
       d="m 12.4062,405.471 260.3078,0"
       clip-path="url(#p94e78c1e94)" />
  </g>
  <g
     style="stroke-linecap:butt;stroke-linejoin:round"
     id="line2d_2">
    <path
       id="path4434"
       style="fill:none;stroke:#0000ff;stroke-width:4;stroke-linecap:square;stroke-linejoin:round"
       d="m 142.56,405.471 0,-130.154"
       clip-path="url(#p94e78c1e94)" />
  </g>
  <g
     style="stroke-linecap:butt;stroke-linejoin:round"
     id="line2d_3">
    <path
       id="path4437"
       style="fill:none;stroke:#ff0000;stroke-width:4;stroke-linecap:square;stroke-linejoin:round"
       d="m 142.56,275.317 0,-130.154"
       clip-path="url(#p94e78c1e94)" />
  </g>
  <g
     style="stroke-linecap:butt;stroke-linejoin:round"
     id="line2d_4">
    <path
       id="path4440"
       style="fill:none;stroke:#0000ff;stroke-width:4;stroke-linecap:square;stroke-linejoin:round"
       d="m 142.56,145.163 0,-130.1538"
       clip-path="url(#p94e78c1e94)" />
  </g>
  <g
     style="stroke-linecap:butt;stroke-linejoin:round"
     id="matplotlib.axis_1" />
  <g
     style="stroke-linecap:butt;stroke-linejoin:round"
     id="matplotlib.axis_2" />
  <g
     style="stroke-linecap:butt;stroke-linejoin:round"
     id="patch_3">
    <path
       id="path4445"
       style="fill:#ffffff;stroke:#ffffff;stroke-linecap:butt;stroke-linejoin:round"
       d="m 142.56,278.571 c 0.863,0 1.691,-0.343 2.301,-0.953 0.61,-0.61 0.953,-1.438 0.953,-2.301 0,-0.863 -0.343,-1.691 -0.953,-2.301 -0.61,-0.61 -1.438,-0.953 -2.301,-0.953 -0.863,0 -1.691,0.343 -2.301,0.953 -0.61,0.61 -0.953,1.438 -0.953,2.301 0,0.863 0.343,1.691 0.953,2.301 0.61,0.61 1.438,0.953 2.301,0.953 z"
       clip-path="url(#p94e78c1e94)" />
  </g>
  <g
     style="stroke-linecap:butt;stroke-linejoin:round"
     id="patch_4">
    <path
       id="path4448"
       style="fill:#ffffff;stroke:#ffffff;stroke-linecap:butt;stroke-linejoin:round"
       d="m 142.56,148.417 c 0.863,0 1.691,-0.343 2.301,-0.953 0.61,-0.61 0.953,-1.438 0.953,-2.301 0,-0.863 -0.343,-1.691 -0.953,-2.301 -0.61,-0.61 -1.438,-0.953 -2.301,-0.953 -0.863,0 -1.691,0.343 -2.301,0.953 -0.61,0.61 -0.953,1.438 -0.953,2.301 0,0.863 0.343,1.691 0.953,2.301 0.61,0.61 1.438,0.953 2.301,0.953 z"
       clip-path="url(#p94e78c1e94)" />
  </g>
  <g
     style="stroke-linecap:butt;stroke-linejoin:round"
     id="patch_5">
    <path
       id="path4451"
       style="fill:none;stroke:#000000;stroke-width:2;stroke-linecap:butt;stroke-linejoin:round"
       d="m 142.56,278.571 c 0.863,0 1.691,-0.343 2.301,-0.953 0.61,-0.61 0.953,-1.438 0.953,-2.301 0,-0.863 -0.343,-1.691 -0.953,-2.301 -0.61,-0.61 -1.438,-0.953 -2.301,-0.953 -0.863,0 -1.691,0.343 -2.301,0.953 -0.61,0.61 -0.953,1.438 -0.953,2.301 0,0.863 0.343,1.691 0.953,2.301 0.61,0.61 1.438,0.953 2.301,0.953 z"
       clip-path="url(#p94e78c1e94)" />
  </g>
  <g
     style="stroke-linecap:butt;stroke-linejoin:round"
     id="patch_6">
    <path
       id="path4454"
       style="fill:none;stroke:#000000;stroke-width:2;stroke-linecap:butt;stroke-linejoin:round"
       d="m 142.56,148.417 c 0.863,0 1.691,-0.343 2.301,-0.953 0.61,-0.61 0.953,-1.438 0.953,-2.301 0,-0.863 -0.343,-1.691 -0.953,-2.301 -0.61,-0.61 -1.438,-0.953 -2.301,-0.953 -0.863,0 -1.691,0.343 -2.301,0.953 -0.61,0.61 -0.953,1.438 -0.953,2.301 0,0.863 0.343,1.691 0.953,2.301 0.61,0.61 1.438,0.953 2.301,0.953 z"
       clip-path="url(#p94e78c1e94)" />
  </g>
  <defs
     id="defs4456">
    <clipPath
       id="p94e78c1e94">
      <rect
         id="rect4459"
         y="7.2"
         x="7.2"
         width="270.72"
         height="406.08" />
    </clipPath>
  </defs>
</svg>
