<?xml version="1.0" encoding="UTF-8" standalone="no"?>
<!-- Created with matplotlib (http://matplotlib.org/) -->

<svg
   xmlns:dc="http://purl.org/dc/elements/1.1/"
   xmlns:cc="http://creativecommons.org/ns#"
   xmlns:rdf="http://www.w3.org/1999/02/22-rdf-syntax-ns#"
   xmlns:svg="http://www.w3.org/2000/svg"
   xmlns="http://www.w3.org/2000/svg"
   xmlns:sodipodi="http://sodipodi.sourceforge.net/DTD/sodipodi-0.dtd"
   xmlns:inkscape="http://www.inkscape.org/namespaces/inkscape"
   height="406pt"
   version="1.1"
   viewBox="0 0 564 406"
   width="564pt"
   id="svg4896"
   inkscape:version="0.91 r13725"
   sodipodi:docname="blue_flower.svg">
  <metadata
     id="metadata4946">
    <rdf:RDF>
      <cc:Work
         rdf:about="">
        <dc:format>image/svg+xml</dc:format>
        <dc:type
           rdf:resource="http://purl.org/dc/dcmitype/StillImage" />
      </cc:Work>
    </rdf:RDF>
  </metadata>
  <sodipodi:namedview
     pagecolor="#ffffff"
     bordercolor="#666666"
     borderopacity="1"
     objecttolerance="10"
     gridtolerance="10"
     guidetolerance="10"
     inkscape:pageopacity="0"
     inkscape:pageshadow="2"
     inkscape:window-width="1276"
     inkscape:window-height="755"
     id="namedview4944"
     showgrid="false"
     inkscape:zoom="1.0896552"
     inkscape:cx="352.5"
     inkscape:cy="253.75"
     inkscape:window-x="4"
     inkscape:window-y="1"
     inkscape:window-maximized="1"
     inkscape:current-layer="svg4896" />
  <defs
     id="defs4898">
    <style
       type="text/css"
       id="style4900">
*{stroke-linecap:butt;stroke-linejoin:round;}
  </style>
  </defs>
  <g
     id="line2d_1"
     style="stroke-linecap:butt;stroke-linejoin:round">
    <path
       clip-path="url(#p2f71f1a8d4)"
       d="m 17.7785,384.983 528.9235,0"
       style="fill:none;stroke:#000000;stroke-width:2;stroke-linecap:square;stroke-linejoin:round"
       id="path4911"
       inkscape:connector-curvature="0" />
  </g>
  <g
     id="patch_3"
     style="stroke-linecap:butt;stroke-linejoin:round">
    <path
       clip-path="url(#p2f71f1a8d4)"
       d="m 282.24,384.983 q 52.892,-26.446 52.892,-105.784"
       style="fill:none;stroke:#0000ff;stroke-width:4;stroke-linecap:butt;stroke-linejoin:round"
       id="path4914"
       inkscape:connector-curvature="0" />
  </g>
  <g
     id="patch_4"
     style="stroke-linecap:butt;stroke-linejoin:round">
    <path
       clip-path="url(#p2f71f1a8d4)"
       d="M 282.24,384.983 Q 229.348,358.537 229.348,279.199"
       style="fill:none;stroke:#0000ff;stroke-width:4;stroke-linecap:butt;stroke-linejoin:round"
       id="path4917"
       inkscape:connector-curvature="0" />
  </g>
  <g
     id="line2d_2"
     style="stroke-linecap:butt;stroke-linejoin:round">
    <path
       clip-path="url(#p2f71f1a8d4)"
       d="m 282.24,384.983 0,-264.461"
       style="fill:none;stroke:#0000ff;stroke-width:4;stroke-linecap:square;stroke-linejoin:round"
       id="path4920"
       inkscape:connector-curvature="0" />
  </g>
  <g
     id="matplotlib.axis_1"
     style="stroke-linecap:butt;stroke-linejoin:round" />
  <g
     id="matplotlib.axis_2"
     style="stroke-linecap:butt;stroke-linejoin:round" />
  <g
     id="patch_5"
     style="stroke-linecap:butt;stroke-linejoin:round">
    <path
       clip-path="url(#p2f71f1a8d4)"
       d="m 282.24,120.522 c 14.027,0 27.482,-5.573 37.401,-15.492 9.918,-9.9188 15.491,-23.3733 15.491,-37.4005 0,-14.0272 -5.573,-27.4818 -15.491,-37.4005 -9.919,-9.9188 -23.374,-15.4918 -37.401,-15.4918 -14.027,0 -27.482,5.573 -37.401,15.4918 -9.918,9.9187 -15.491,23.3733 -15.491,37.4005 0,14.0272 5.573,27.4817 15.491,37.4005 9.919,9.919 23.374,15.492 37.401,15.492 z"
       style="fill:none;stroke:#0000ff;stroke-width:4;stroke-linecap:butt;stroke-linejoin:round"
       id="path4925"
       inkscape:connector-curvature="0" />
  </g>
  <g
     id="patch_6"
     style="stroke-linecap:butt;stroke-linejoin:round">
    <path
       clip-path="url(#p2f71f1a8d4)"
       d="m 282.24,391.595 c 1.753,0 3.435,-0.697 4.675,-1.937 1.24,-1.239 1.937,-2.921 1.937,-4.675 0,-1.753 -0.697,-3.435 -1.937,-4.675 -1.24,-1.24 -2.922,-1.936 -4.675,-1.936 -1.753,0 -3.435,0.696 -4.675,1.936 -1.24,1.24 -1.937,2.922 -1.937,4.675 0,1.754 0.697,3.436 1.937,4.675 1.24,1.24 2.922,1.937 4.675,1.937 z"
       style="fill:#ffffff;stroke:#ffffff;stroke-linecap:butt;stroke-linejoin:round"
       id="path4928"
       inkscape:connector-curvature="0" />
  </g>
  <g
     id="patch_7"
     style="stroke-linecap:butt;stroke-linejoin:round">
    <path
       clip-path="url(#p2f71f1a8d4)"
       d="m 282.24,127.133 c 1.753,0 3.435,-0.696 4.675,-1.936 1.24,-1.24 1.937,-2.922 1.937,-4.675 0,-1.754 -0.697,-3.435 -1.937,-4.675 -1.24,-1.24 -2.922,-1.937 -4.675,-1.937 -1.753,0 -3.435,0.697 -4.675,1.937 -1.24,1.24 -1.937,2.921 -1.937,4.675 0,1.753 0.697,3.435 1.937,4.675 1.24,1.24 2.922,1.936 4.675,1.936 z"
       style="fill:#ffffff;stroke:#ffffff;stroke-linecap:butt;stroke-linejoin:round"
       id="path4931"
       inkscape:connector-curvature="0" />
  </g>
  <g
     id="patch_8"
     style="stroke-linecap:butt;stroke-linejoin:round">
    <path
       clip-path="url(#p2f71f1a8d4)"
       d="m 282.24,391.595 c 1.753,0 3.435,-0.697 4.675,-1.937 1.24,-1.239 1.937,-2.921 1.937,-4.675 0,-1.753 -0.697,-3.435 -1.937,-4.675 -1.24,-1.24 -2.922,-1.936 -4.675,-1.936 -1.753,0 -3.435,0.696 -4.675,1.936 -1.24,1.24 -1.937,2.922 -1.937,4.675 0,1.754 0.697,3.436 1.937,4.675 1.24,1.24 2.922,1.937 4.675,1.937 z"
       style="fill:none;stroke:#000000;stroke-width:2;stroke-linecap:butt;stroke-linejoin:round"
       id="path4934"
       inkscape:connector-curvature="0" />
  </g>
  <g
     id="patch_9"
     style="stroke-linecap:butt;stroke-linejoin:round">
    <path
       clip-path="url(#p2f71f1a8d4)"
       d="m 282.24,127.133 c 1.753,0 3.435,-0.696 4.675,-1.936 1.24,-1.24 1.937,-2.922 1.937,-4.675 0,-1.754 -0.697,-3.435 -1.937,-4.675 -1.24,-1.24 -2.922,-1.937 -4.675,-1.937 -1.753,0 -3.435,0.697 -4.675,1.937 -1.24,1.24 -1.937,2.921 -1.937,4.675 0,1.753 0.697,3.435 1.937,4.675 1.24,1.24 2.922,1.936 4.675,1.936 z"
       style="fill:none;stroke:#000000;stroke-width:2;stroke-linecap:butt;stroke-linejoin:round"
       id="path4937"
       inkscape:connector-curvature="0" />
  </g>
  <defs
     id="defs4939">
    <clipPath
       id="p2f71f1a8d4">
      <rect
         height="391.932"
         width="550.08"
         x="7.2"
         y="7.2"
         id="rect4942" />
    </clipPath>
  </defs>
</svg>
