<?xml version="1.0" encoding="UTF-8" standalone="no"?>
<!-- Created with matplotlib (http://matplotlib.org/) -->

<svg
   xmlns:dc="http://purl.org/dc/elements/1.1/"
   xmlns:cc="http://creativecommons.org/ns#"
   xmlns:rdf="http://www.w3.org/1999/02/22-rdf-syntax-ns#"
   xmlns:svg="http://www.w3.org/2000/svg"
   xmlns="http://www.w3.org/2000/svg"
   xmlns:sodipodi="http://sodipodi.sourceforge.net/DTD/sodipodi-0.dtd"
   xmlns:inkscape="http://www.inkscape.org/namespaces/inkscape"
   height="417pt"
   version="1.1"
   viewBox="0 0 564 417"
   width="564pt"
   id="svg4264"
   inkscape:version="0.91 r13725"
   sodipodi:docname="flower_with_2_leaves_and_3_petals.svg">
  <metadata
     id="metadata4320">
    <rdf:RDF>
      <cc:Work
         rdf:about="">
        <dc:format>image/svg+xml</dc:format>
        <dc:type
           rdf:resource="http://purl.org/dc/dcmitype/StillImage" />
      </cc:Work>
    </rdf:RDF>
  </metadata>
  <sodipodi:namedview
     pagecolor="#ffffff"
     bordercolor="#666666"
     borderopacity="1"
     objecttolerance="10"
     gridtolerance="10"
     guidetolerance="10"
     inkscape:pageopacity="0"
     inkscape:pageshadow="2"
     inkscape:window-width="1276"
     inkscape:window-height="755"
     id="namedview4318"
     showgrid="false"
     inkscape:zoom="1.0609113"
     inkscape:cx="352.5"
     inkscape:cy="260.625"
     inkscape:window-x="4"
     inkscape:window-y="1"
     inkscape:window-maximized="1"
     inkscape:current-layer="svg4264" />
  <defs
     id="defs4266">
    <style
       type="text/css"
       id="style4268">
*{stroke-linecap:butt;stroke-linejoin:round;}
  </style>
  </defs>
  <g
     id="patch_3"
     style="stroke-linecap:butt;stroke-linejoin:round">
    <path
       clip-path="url(#pabf2f23ff8)"
       d="M 282.24,395.773 Q 192.323,369.327 176.455,289.989"
       style="fill:none;stroke:#008026;stroke-width:4;stroke-linecap:butt;stroke-linejoin:round"
       id="path4279"
       inkscape:connector-curvature="0" />
  </g>
  <g
     id="patch_4"
     style="stroke-linecap:butt;stroke-linejoin:round">
    <path
       clip-path="url(#pabf2f23ff8)"
       d="M 282.24,395.773 Q 372.157,369.327 388.025,289.989"
       style="fill:none;stroke:#008026;stroke-width:4;stroke-linecap:butt;stroke-linejoin:round"
       id="path4282"
       inkscape:connector-curvature="0" />
  </g>
  <g
     id="patch_5"
     style="stroke-linecap:butt;stroke-linejoin:round">
    <path
       clip-path="url(#pabf2f23ff8)"
       d="M 282.24,131.312 Q 351,184.204 388.025,157.758"
       style="fill:none;stroke:#008026;stroke-width:4;stroke-linecap:butt;stroke-linejoin:round"
       id="path4285"
       inkscape:connector-curvature="0" />
  </g>
  <g
     id="patch_6"
     style="stroke-linecap:butt;stroke-linejoin:round">
    <path
       clip-path="url(#pabf2f23ff8)"
       d="m 282.24,131.312 q -68.76,52.892 -105.785,26.446"
       style="fill:none;stroke:#008026;stroke-width:4;stroke-linecap:butt;stroke-linejoin:round"
       id="path4288"
       inkscape:connector-curvature="0" />
  </g>
  <g
     id="patch_7"
     style="stroke-linecap:butt;stroke-linejoin:round">
    <path
       clip-path="url(#pabf2f23ff8)"
       d="m 282.24,131.312 q 0,-26.446 15.868,-52.8925 10.578,-15.8677 0,-63.4708"
       style="fill:none;stroke:#008026;stroke-width:4;stroke-linecap:butt;stroke-linejoin:round"
       id="path4291"
       inkscape:connector-curvature="0" />
  </g>
  <g
     id="line2d_1"
     style="stroke-linecap:butt;stroke-linejoin:round">
    <path
       clip-path="url(#pabf2f23ff8)"
       d="m 282.24,395.773 0,-264.461"
       style="fill:none;stroke:#008026;stroke-width:4;stroke-linecap:square;stroke-linejoin:round"
       id="path4294"
       inkscape:connector-curvature="0" />
  </g>
  <g
     id="matplotlib.axis_1"
     style="stroke-linecap:butt;stroke-linejoin:round" />
  <g
     id="matplotlib.axis_2"
     style="stroke-linecap:butt;stroke-linejoin:round" />
  <g
     id="line2d_2"
     style="stroke-linecap:butt;stroke-linejoin:round">
    <path
       clip-path="url(#pabf2f23ff8)"
       d="m 17.7785,395.773 528.9235,0"
       style="fill:none;stroke:#000000;stroke-width:2;stroke-linecap:square;stroke-linejoin:round"
       id="path4299"
       inkscape:connector-curvature="0" />
  </g>
  <g
     id="patch_8"
     style="stroke-linecap:butt;stroke-linejoin:round">
    <path
       clip-path="url(#pabf2f23ff8)"
       d="m 282.24,402.385 c 1.753,0 3.435,-0.697 4.675,-1.937 1.24,-1.239 1.937,-2.921 1.937,-4.675 0,-1.753 -0.697,-3.435 -1.937,-4.675 -1.24,-1.24 -2.922,-1.936 -4.675,-1.936 -1.753,0 -3.435,0.696 -4.675,1.936 -1.24,1.24 -1.937,2.922 -1.937,4.675 0,1.754 0.697,3.436 1.937,4.675 1.24,1.24 2.922,1.937 4.675,1.937 z"
       style="fill:#ffffff;stroke:#ffffff;stroke-linecap:butt;stroke-linejoin:round"
       id="path4302"
       inkscape:connector-curvature="0" />
  </g>
  <g
     id="patch_9"
     style="stroke-linecap:butt;stroke-linejoin:round">
    <path
       clip-path="url(#pabf2f23ff8)"
       d="m 282.24,137.923 c 1.753,0 3.435,-0.696 4.675,-1.936 1.24,-1.24 1.937,-2.922 1.937,-4.675 0,-1.754 -0.697,-3.435 -1.937,-4.675 -1.24,-1.24 -2.922,-1.937 -4.675,-1.937 -1.753,0 -3.435,0.697 -4.675,1.937 -1.24,1.24 -1.937,2.921 -1.937,4.675 0,1.753 0.697,3.435 1.937,4.675 1.24,1.24 2.922,1.936 4.675,1.936 z"
       style="fill:#ffffff;stroke:#ffffff;stroke-linecap:butt;stroke-linejoin:round"
       id="path4305"
       inkscape:connector-curvature="0" />
  </g>
  <g
     id="patch_10"
     style="stroke-linecap:butt;stroke-linejoin:round">
    <path
       clip-path="url(#pabf2f23ff8)"
       d="m 282.24,402.385 c 1.753,0 3.435,-0.697 4.675,-1.937 1.24,-1.239 1.937,-2.921 1.937,-4.675 0,-1.753 -0.697,-3.435 -1.937,-4.675 -1.24,-1.24 -2.922,-1.936 -4.675,-1.936 -1.753,0 -3.435,0.696 -4.675,1.936 -1.24,1.24 -1.937,2.922 -1.937,4.675 0,1.754 0.697,3.436 1.937,4.675 1.24,1.24 2.922,1.937 4.675,1.937 z"
       style="fill:none;stroke:#000000;stroke-linecap:butt;stroke-linejoin:round"
       id="path4308"
       inkscape:connector-curvature="0" />
  </g>
  <g
     id="patch_11"
     style="stroke-linecap:butt;stroke-linejoin:round">
    <path
       clip-path="url(#pabf2f23ff8)"
       d="m 282.24,137.923 c 1.753,0 3.435,-0.696 4.675,-1.936 1.24,-1.24 1.937,-2.922 1.937,-4.675 0,-1.754 -0.697,-3.435 -1.937,-4.675 -1.24,-1.24 -2.922,-1.937 -4.675,-1.937 -1.753,0 -3.435,0.697 -4.675,1.937 -1.24,1.24 -1.937,2.921 -1.937,4.675 0,1.753 0.697,3.435 1.937,4.675 1.24,1.24 2.922,1.936 4.675,1.936 z"
       style="fill:none;stroke:#000000;stroke-linecap:butt;stroke-linejoin:round"
       id="path4311"
       inkscape:connector-curvature="0" />
  </g>
  <defs
     id="defs4313">
    <clipPath
       id="pabf2f23ff8">
      <rect
         height="402.9336"
         width="550.08"
         x="7.2"
         y="7.2"
         id="rect4316" />
    </clipPath>
  </defs>
</svg>
