<?xml version="1.0" encoding="UTF-8" standalone="no"?>
<!-- Created with matplotlib (http://matplotlib.org/) -->

<svg
   xmlns:dc="http://purl.org/dc/elements/1.1/"
   xmlns:cc="http://creativecommons.org/ns#"
   xmlns:rdf="http://www.w3.org/1999/02/22-rdf-syntax-ns#"
   xmlns:svg="http://www.w3.org/2000/svg"
   xmlns="http://www.w3.org/2000/svg"
   xmlns:sodipodi="http://sodipodi.sourceforge.net/DTD/sodipodi-0.dtd"
   xmlns:inkscape="http://www.inkscape.org/namespaces/inkscape"
   height="420pt"
   version="1.1"
   viewBox="0 0 548 420"
   width="548pt"
   id="svg4910"
   inkscape:version="0.91 r13725"
   sodipodi:docname="house_with_door_and_tree.svg">
  <metadata
     id="metadata5032">
    <rdf:RDF>
      <cc:Work
         rdf:about="">
        <dc:format>image/svg+xml</dc:format>
        <dc:type
           rdf:resource="http://purl.org/dc/dcmitype/StillImage" />
      </cc:Work>
    </rdf:RDF>
  </metadata>
  <sodipodi:namedview
     pagecolor="#ffffff"
     bordercolor="#666666"
     borderopacity="1"
     objecttolerance="10"
     gridtolerance="10"
     guidetolerance="10"
     inkscape:pageopacity="0"
     inkscape:pageshadow="2"
     inkscape:window-width="1276"
     inkscape:window-height="755"
     id="namedview5030"
     showgrid="false"
     inkscape:zoom="1.0533333"
     inkscape:cx="342.5"
     inkscape:cy="262.5"
     inkscape:window-x="4"
     inkscape:window-y="1"
     inkscape:window-maximized="1"
     inkscape:current-layer="svg4910" />
  <defs
     id="defs4912">
    <style
       type="text/css"
       id="style4914">
*{stroke-linecap:butt;stroke-linejoin:round;}
  </style>
  </defs>
  <g
     id="patch_3"
     style="stroke-linecap:butt;stroke-linejoin:round">
    <path
       clip-path="url(#pbdb489e7fd)"
       d="m 445.373,186.17 c 22.696,0 44.466,-9.017 60.514,-25.066 16.049,-16.048 25.066,-37.818 25.066,-60.514 0,-22.6964 -9.017,-44.4661 -25.066,-60.5148 -16.048,-16.0487 -37.818,-25.066 -60.514,-25.066 -22.697,0 -44.466,9.0173 -60.515,25.066 -16.049,16.0487 -25.066,37.8184 -25.066,60.5148 0,22.696 9.017,44.466 25.066,60.514 16.049,16.049 37.818,25.066 60.515,25.066 z"
       style="fill:none;stroke:#008040;stroke-width:4;stroke-linecap:butt;stroke-linejoin:round"
       id="path4925"
       inkscape:connector-curvature="0" />
  </g>
  <g
     id="line2d_1"
     style="stroke-linecap:butt;stroke-linejoin:round">
    <path
       clip-path="url(#pbdb489e7fd)"
       d="m 103.05,400.122 0,-171.161"
       style="fill:none;stroke:#008026;stroke-width:4;stroke-linecap:square;stroke-linejoin:round"
       id="path4928"
       inkscape:connector-curvature="0" />
  </g>
  <g
     id="line2d_2"
     style="stroke-linecap:butt;stroke-linejoin:round">
    <path
       clip-path="url(#pbdb489e7fd)"
       d="m 359.792,400.122 0,-171.161"
       style="fill:none;stroke:#008026;stroke-width:4;stroke-linecap:square;stroke-linejoin:round"
       id="path4931"
       inkscape:connector-curvature="0" />
  </g>
  <g
     id="line2d_3"
     style="stroke-linecap:butt;stroke-linejoin:round">
    <path
       clip-path="url(#pbdb489e7fd)"
       d="M 103.05,228.961 231.421,143.38"
       style="fill:none;stroke:#008026;stroke-width:4;stroke-linecap:square;stroke-linejoin:round"
       id="path4934"
       inkscape:connector-curvature="0" />
  </g>
  <g
     id="line2d_4"
     style="stroke-linecap:butt;stroke-linejoin:round">
    <path
       clip-path="url(#pbdb489e7fd)"
       d="M 359.792,228.961 231.421,143.38"
       style="fill:none;stroke:#008026;stroke-width:4;stroke-linecap:square;stroke-linejoin:round"
       id="path4937"
       inkscape:connector-curvature="0" />
  </g>
  <g
     id="line2d_5"
     style="stroke-linecap:butt;stroke-linejoin:round">
    <path
       clip-path="url(#pbdb489e7fd)"
       d="m 145.841,400.122 0,-128.371"
       style="fill:none;stroke:#008026;stroke-width:4;stroke-linecap:square;stroke-linejoin:round"
       id="path4940"
       inkscape:connector-curvature="0" />
  </g>
  <g
     id="line2d_6"
     style="stroke-linecap:butt;stroke-linejoin:round">
    <path
       clip-path="url(#pbdb489e7fd)"
       d="m 231.421,400.122 0,-128.371"
       style="fill:none;stroke:#008026;stroke-width:4;stroke-linecap:square;stroke-linejoin:round"
       id="path4943"
       inkscape:connector-curvature="0" />
  </g>
  <g
     id="line2d_7"
     style="stroke-linecap:butt;stroke-linejoin:round">
    <path
       clip-path="url(#pbdb489e7fd)"
       d="m 231.421,271.751 -85.58,0"
       style="fill:none;stroke:#008026;stroke-width:4;stroke-linecap:square;stroke-linejoin:round"
       id="path4946"
       inkscape:connector-curvature="0" />
  </g>
  <g
     id="line2d_8"
     style="stroke-linecap:butt;stroke-linejoin:round">
    <path
       clip-path="url(#pbdb489e7fd)"
       d="m 445.373,400.122 85.58,0"
       style="fill:none;stroke:#000000;stroke-width:2;stroke-linecap:square;stroke-linejoin:round"
       id="path4949"
       inkscape:connector-curvature="0" />
  </g>
  <g
     id="line2d_9"
     style="stroke-linecap:butt;stroke-linejoin:round">
    <path
       clip-path="url(#pbdb489e7fd)"
       d="m 445.373,400.122 0,-213.952"
       style="fill:none;stroke:#008026;stroke-width:4;stroke-linecap:square;stroke-linejoin:round"
       id="path4952"
       inkscape:connector-curvature="0" />
  </g>
  <g
     id="matplotlib.axis_1"
     style="stroke-linecap:butt;stroke-linejoin:round" />
  <g
     id="matplotlib.axis_2"
     style="stroke-linecap:butt;stroke-linejoin:round" />
  <g
     id="line2d_10"
     style="stroke-linecap:butt;stroke-linejoin:round">
    <path
       clip-path="url(#pbdb489e7fd)"
       d="m 17.4697,400.122 427.9033,0"
       style="fill:none;stroke:#000000;stroke-width:2;stroke-linecap:square;stroke-linejoin:round"
       id="path4957"
       inkscape:connector-curvature="0" />
  </g>
  <g
     id="patch_4"
     style="stroke-linecap:butt;stroke-linejoin:round">
    <path
       clip-path="url(#pbdb489e7fd)"
       d="m 103.05,405.471 c 1.419,0 2.779,-0.564 3.782,-1.567 1.003,-1.003 1.567,-2.364 1.567,-3.782 0,-1.419 -0.564,-2.779 -1.567,-3.782 -1.003,-1.003 -2.363,-1.567 -3.782,-1.567 -1.418,0 -2.779,0.564 -3.7819,1.567 -1.003,1.003 -1.5666,2.363 -1.5666,3.782 0,1.418 0.5636,2.779 1.5666,3.782 1.0029,1.003 2.3639,1.567 3.7819,1.567 z"
       style="fill:#ffffff;stroke:#ffffff;stroke-linecap:butt;stroke-linejoin:round"
       id="path4960"
       inkscape:connector-curvature="0" />
  </g>
  <g
     id="patch_5"
     style="stroke-linecap:butt;stroke-linejoin:round">
    <path
       clip-path="url(#pbdb489e7fd)"
       d="m 359.792,405.471 c 1.419,0 2.779,-0.564 3.782,-1.567 1.003,-1.003 1.567,-2.364 1.567,-3.782 0,-1.419 -0.564,-2.779 -1.567,-3.782 -1.003,-1.003 -2.363,-1.567 -3.782,-1.567 -1.418,0 -2.779,0.564 -3.782,1.567 -1.003,1.003 -1.567,2.363 -1.567,3.782 0,1.418 0.564,2.779 1.567,3.782 1.003,1.003 2.364,1.567 3.782,1.567 z"
       style="fill:#ffffff;stroke:#ffffff;stroke-linecap:butt;stroke-linejoin:round"
       id="path4963"
       inkscape:connector-curvature="0" />
  </g>
  <g
     id="patch_6"
     style="stroke-linecap:butt;stroke-linejoin:round">
    <path
       clip-path="url(#pbdb489e7fd)"
       d="m 103.05,234.31 c 1.419,0 2.779,-0.564 3.782,-1.567 1.003,-1.003 1.567,-2.364 1.567,-3.782 0,-1.419 -0.564,-2.779 -1.567,-3.782 -1.003,-1.003 -2.363,-1.567 -3.782,-1.567 -1.418,0 -2.779,0.564 -3.7819,1.567 -1.003,1.003 -1.5666,2.363 -1.5666,3.782 0,1.418 0.5636,2.779 1.5666,3.782 1.0029,1.003 2.3639,1.567 3.7819,1.567 z"
       style="fill:#ffffff;stroke:#ffffff;stroke-linecap:butt;stroke-linejoin:round"
       id="path4966"
       inkscape:connector-curvature="0" />
  </g>
  <g
     id="patch_7"
     style="stroke-linecap:butt;stroke-linejoin:round">
    <path
       clip-path="url(#pbdb489e7fd)"
       d="m 359.792,234.31 c 1.419,0 2.779,-0.564 3.782,-1.567 1.003,-1.003 1.567,-2.364 1.567,-3.782 0,-1.419 -0.564,-2.779 -1.567,-3.782 -1.003,-1.003 -2.363,-1.567 -3.782,-1.567 -1.418,0 -2.779,0.564 -3.782,1.567 -1.003,1.003 -1.567,2.363 -1.567,3.782 0,1.418 0.564,2.779 1.567,3.782 1.003,1.003 2.364,1.567 3.782,1.567 z"
       style="fill:#ffffff;stroke:#ffffff;stroke-linecap:butt;stroke-linejoin:round"
       id="path4969"
       inkscape:connector-curvature="0" />
  </g>
  <g
     id="patch_8"
     style="stroke-linecap:butt;stroke-linejoin:round">
    <path
       clip-path="url(#pbdb489e7fd)"
       d="m 231.421,148.729 c 1.419,0 2.779,-0.564 3.782,-1.567 1.003,-1.003 1.567,-2.363 1.567,-3.782 0,-1.418 -0.564,-2.779 -1.567,-3.782 -1.003,-1.003 -2.363,-1.567 -3.782,-1.567 -1.418,0 -2.779,0.564 -3.782,1.567 -1.003,1.003 -1.567,2.364 -1.567,3.782 0,1.419 0.564,2.779 1.567,3.782 1.003,1.003 2.364,1.567 3.782,1.567 z"
       style="fill:#ffffff;stroke:#ffffff;stroke-linecap:butt;stroke-linejoin:round"
       id="path4972"
       inkscape:connector-curvature="0" />
  </g>
  <g
     id="patch_9"
     style="stroke-linecap:butt;stroke-linejoin:round">
    <path
       clip-path="url(#pbdb489e7fd)"
       d="m 145.841,405.471 c 1.418,0 2.779,-0.564 3.782,-1.567 1.003,-1.003 1.566,-2.364 1.566,-3.782 0,-1.419 -0.563,-2.779 -1.566,-3.782 -1.003,-1.003 -2.364,-1.567 -3.782,-1.567 -1.419,0 -2.78,0.564 -3.783,1.567 -1.003,1.003 -1.566,2.363 -1.566,3.782 0,1.418 0.563,2.779 1.566,3.782 1.003,1.003 2.364,1.567 3.783,1.567 z"
       style="fill:#ffffff;stroke:#ffffff;stroke-linecap:butt;stroke-linejoin:round"
       id="path4975"
       inkscape:connector-curvature="0" />
  </g>
  <g
     id="patch_10"
     style="stroke-linecap:butt;stroke-linejoin:round">
    <path
       clip-path="url(#pbdb489e7fd)"
       d="m 231.421,405.471 c 1.419,0 2.779,-0.564 3.782,-1.567 1.003,-1.003 1.567,-2.364 1.567,-3.782 0,-1.419 -0.564,-2.779 -1.567,-3.782 -1.003,-1.003 -2.363,-1.567 -3.782,-1.567 -1.418,0 -2.779,0.564 -3.782,1.567 -1.003,1.003 -1.567,2.363 -1.567,3.782 0,1.418 0.564,2.779 1.567,3.782 1.003,1.003 2.364,1.567 3.782,1.567 z"
       style="fill:#ffffff;stroke:#ffffff;stroke-linecap:butt;stroke-linejoin:round"
       id="path4978"
       inkscape:connector-curvature="0" />
  </g>
  <g
     id="patch_11"
     style="stroke-linecap:butt;stroke-linejoin:round">
    <path
       clip-path="url(#pbdb489e7fd)"
       d="m 231.421,277.1 c 1.419,0 2.779,-0.564 3.782,-1.567 1.003,-1.003 1.567,-2.363 1.567,-3.782 0,-1.418 -0.564,-2.779 -1.567,-3.782 -1.003,-1.003 -2.363,-1.567 -3.782,-1.567 -1.418,0 -2.779,0.564 -3.782,1.567 -1.003,1.003 -1.567,2.364 -1.567,3.782 0,1.419 0.564,2.779 1.567,3.782 1.003,1.003 2.364,1.567 3.782,1.567 z"
       style="fill:#ffffff;stroke:#ffffff;stroke-linecap:butt;stroke-linejoin:round"
       id="path4981"
       inkscape:connector-curvature="0" />
  </g>
  <g
     id="patch_12"
     style="stroke-linecap:butt;stroke-linejoin:round">
    <path
       clip-path="url(#pbdb489e7fd)"
       d="m 145.841,277.1 c 1.418,0 2.779,-0.564 3.782,-1.567 1.003,-1.003 1.566,-2.363 1.566,-3.782 0,-1.418 -0.563,-2.779 -1.566,-3.782 -1.003,-1.003 -2.364,-1.567 -3.782,-1.567 -1.419,0 -2.78,0.564 -3.783,1.567 -1.003,1.003 -1.566,2.364 -1.566,3.782 0,1.419 0.563,2.779 1.566,3.782 1.003,1.003 2.364,1.567 3.783,1.567 z"
       style="fill:#ffffff;stroke:#ffffff;stroke-linecap:butt;stroke-linejoin:round"
       id="path4984"
       inkscape:connector-curvature="0" />
  </g>
  <g
     id="patch_13"
     style="stroke-linecap:butt;stroke-linejoin:round">
    <path
       clip-path="url(#pbdb489e7fd)"
       d="m 445.373,405.471 c 1.418,0 2.779,-0.564 3.782,-1.567 1.003,-1.003 1.567,-2.364 1.567,-3.782 0,-1.419 -0.564,-2.779 -1.567,-3.782 -1.003,-1.003 -2.364,-1.567 -3.782,-1.567 -1.419,0 -2.779,0.564 -3.782,1.567 -1.003,1.003 -1.567,2.363 -1.567,3.782 0,1.418 0.564,2.779 1.567,3.782 1.003,1.003 2.363,1.567 3.782,1.567 z"
       style="fill:#ffffff;stroke:#ffffff;stroke-linecap:butt;stroke-linejoin:round"
       id="path4987"
       inkscape:connector-curvature="0" />
  </g>
  <g
     id="patch_14"
     style="stroke-linecap:butt;stroke-linejoin:round">
    <path
       clip-path="url(#pbdb489e7fd)"
       d="m 445.373,191.519 c 1.418,0 2.779,-0.563 3.782,-1.566 1.003,-1.003 1.567,-2.364 1.567,-3.783 0,-1.418 -0.564,-2.779 -1.567,-3.782 -1.003,-1.003 -2.364,-1.566 -3.782,-1.566 -1.419,0 -2.779,0.563 -3.782,1.566 -1.003,1.003 -1.567,2.364 -1.567,3.782 0,1.419 0.564,2.78 1.567,3.783 1.003,1.003 2.363,1.566 3.782,1.566 z"
       style="fill:#ffffff;stroke:#ffffff;stroke-linecap:butt;stroke-linejoin:round"
       id="path4990"
       inkscape:connector-curvature="0" />
  </g>
  <g
     id="patch_15"
     style="stroke-linecap:butt;stroke-linejoin:round">
    <path
       clip-path="url(#pbdb489e7fd)"
       d="m 103.05,405.471 c 1.419,0 2.779,-0.564 3.782,-1.567 1.003,-1.003 1.567,-2.364 1.567,-3.782 0,-1.419 -0.564,-2.779 -1.567,-3.782 -1.003,-1.003 -2.363,-1.567 -3.782,-1.567 -1.418,0 -2.779,0.564 -3.7819,1.567 -1.003,1.003 -1.5666,2.363 -1.5666,3.782 0,1.418 0.5636,2.779 1.5666,3.782 1.0029,1.003 2.3639,1.567 3.7819,1.567 z"
       style="fill:none;stroke:#000000;stroke-linecap:butt;stroke-linejoin:round"
       id="path4993"
       inkscape:connector-curvature="0" />
  </g>
  <g
     id="patch_16"
     style="stroke-linecap:butt;stroke-linejoin:round">
    <path
       clip-path="url(#pbdb489e7fd)"
       d="m 359.792,405.471 c 1.419,0 2.779,-0.564 3.782,-1.567 1.003,-1.003 1.567,-2.364 1.567,-3.782 0,-1.419 -0.564,-2.779 -1.567,-3.782 -1.003,-1.003 -2.363,-1.567 -3.782,-1.567 -1.418,0 -2.779,0.564 -3.782,1.567 -1.003,1.003 -1.567,2.363 -1.567,3.782 0,1.418 0.564,2.779 1.567,3.782 1.003,1.003 2.364,1.567 3.782,1.567 z"
       style="fill:none;stroke:#000000;stroke-linecap:butt;stroke-linejoin:round"
       id="path4996"
       inkscape:connector-curvature="0" />
  </g>
  <g
     id="patch_17"
     style="stroke-linecap:butt;stroke-linejoin:round">
    <path
       clip-path="url(#pbdb489e7fd)"
       d="m 103.05,234.31 c 1.419,0 2.779,-0.564 3.782,-1.567 1.003,-1.003 1.567,-2.364 1.567,-3.782 0,-1.419 -0.564,-2.779 -1.567,-3.782 -1.003,-1.003 -2.363,-1.567 -3.782,-1.567 -1.418,0 -2.779,0.564 -3.7819,1.567 -1.003,1.003 -1.5666,2.363 -1.5666,3.782 0,1.418 0.5636,2.779 1.5666,3.782 1.0029,1.003 2.3639,1.567 3.7819,1.567 z"
       style="fill:none;stroke:#000000;stroke-linecap:butt;stroke-linejoin:round"
       id="path4999"
       inkscape:connector-curvature="0" />
  </g>
  <g
     id="patch_18"
     style="stroke-linecap:butt;stroke-linejoin:round">
    <path
       clip-path="url(#pbdb489e7fd)"
       d="m 359.792,234.31 c 1.419,0 2.779,-0.564 3.782,-1.567 1.003,-1.003 1.567,-2.364 1.567,-3.782 0,-1.419 -0.564,-2.779 -1.567,-3.782 -1.003,-1.003 -2.363,-1.567 -3.782,-1.567 -1.418,0 -2.779,0.564 -3.782,1.567 -1.003,1.003 -1.567,2.363 -1.567,3.782 0,1.418 0.564,2.779 1.567,3.782 1.003,1.003 2.364,1.567 3.782,1.567 z"
       style="fill:none;stroke:#000000;stroke-linecap:butt;stroke-linejoin:round"
       id="path5002"
       inkscape:connector-curvature="0" />
  </g>
  <g
     id="patch_19"
     style="stroke-linecap:butt;stroke-linejoin:round">
    <path
       clip-path="url(#pbdb489e7fd)"
       d="m 231.421,148.729 c 1.419,0 2.779,-0.564 3.782,-1.567 1.003,-1.003 1.567,-2.363 1.567,-3.782 0,-1.418 -0.564,-2.779 -1.567,-3.782 -1.003,-1.003 -2.363,-1.567 -3.782,-1.567 -1.418,0 -2.779,0.564 -3.782,1.567 -1.003,1.003 -1.567,2.364 -1.567,3.782 0,1.419 0.564,2.779 1.567,3.782 1.003,1.003 2.364,1.567 3.782,1.567 z"
       style="fill:none;stroke:#000000;stroke-linecap:butt;stroke-linejoin:round"
       id="path5005"
       inkscape:connector-curvature="0" />
  </g>
  <g
     id="patch_20"
     style="stroke-linecap:butt;stroke-linejoin:round">
    <path
       clip-path="url(#pbdb489e7fd)"
       d="m 145.841,405.471 c 1.418,0 2.779,-0.564 3.782,-1.567 1.003,-1.003 1.566,-2.364 1.566,-3.782 0,-1.419 -0.563,-2.779 -1.566,-3.782 -1.003,-1.003 -2.364,-1.567 -3.782,-1.567 -1.419,0 -2.78,0.564 -3.783,1.567 -1.003,1.003 -1.566,2.363 -1.566,3.782 0,1.418 0.563,2.779 1.566,3.782 1.003,1.003 2.364,1.567 3.783,1.567 z"
       style="fill:none;stroke:#000000;stroke-linecap:butt;stroke-linejoin:round"
       id="path5008"
       inkscape:connector-curvature="0" />
  </g>
  <g
     id="patch_21"
     style="stroke-linecap:butt;stroke-linejoin:round">
    <path
       clip-path="url(#pbdb489e7fd)"
       d="m 231.421,405.471 c 1.419,0 2.779,-0.564 3.782,-1.567 1.003,-1.003 1.567,-2.364 1.567,-3.782 0,-1.419 -0.564,-2.779 -1.567,-3.782 -1.003,-1.003 -2.363,-1.567 -3.782,-1.567 -1.418,0 -2.779,0.564 -3.782,1.567 -1.003,1.003 -1.567,2.363 -1.567,3.782 0,1.418 0.564,2.779 1.567,3.782 1.003,1.003 2.364,1.567 3.782,1.567 z"
       style="fill:none;stroke:#000000;stroke-linecap:butt;stroke-linejoin:round"
       id="path5011"
       inkscape:connector-curvature="0" />
  </g>
  <g
     id="patch_22"
     style="stroke-linecap:butt;stroke-linejoin:round">
    <path
       clip-path="url(#pbdb489e7fd)"
       d="m 231.421,277.1 c 1.419,0 2.779,-0.564 3.782,-1.567 1.003,-1.003 1.567,-2.363 1.567,-3.782 0,-1.418 -0.564,-2.779 -1.567,-3.782 -1.003,-1.003 -2.363,-1.567 -3.782,-1.567 -1.418,0 -2.779,0.564 -3.782,1.567 -1.003,1.003 -1.567,2.364 -1.567,3.782 0,1.419 0.564,2.779 1.567,3.782 1.003,1.003 2.364,1.567 3.782,1.567 z"
       style="fill:none;stroke:#000000;stroke-linecap:butt;stroke-linejoin:round"
       id="path5014"
       inkscape:connector-curvature="0" />
  </g>
  <g
     id="patch_23"
     style="stroke-linecap:butt;stroke-linejoin:round">
    <path
       clip-path="url(#pbdb489e7fd)"
       d="m 145.841,277.1 c 1.418,0 2.779,-0.564 3.782,-1.567 1.003,-1.003 1.566,-2.363 1.566,-3.782 0,-1.418 -0.563,-2.779 -1.566,-3.782 -1.003,-1.003 -2.364,-1.567 -3.782,-1.567 -1.419,0 -2.78,0.564 -3.783,1.567 -1.003,1.003 -1.566,2.364 -1.566,3.782 0,1.419 0.563,2.779 1.566,3.782 1.003,1.003 2.364,1.567 3.783,1.567 z"
       style="fill:none;stroke:#000000;stroke-linecap:butt;stroke-linejoin:round"
       id="path5017"
       inkscape:connector-curvature="0" />
  </g>
  <g
     id="patch_24"
     style="stroke-linecap:butt;stroke-linejoin:round">
    <path
       clip-path="url(#pbdb489e7fd)"
       d="m 445.373,405.471 c 1.418,0 2.779,-0.564 3.782,-1.567 1.003,-1.003 1.567,-2.364 1.567,-3.782 0,-1.419 -0.564,-2.779 -1.567,-3.782 -1.003,-1.003 -2.364,-1.567 -3.782,-1.567 -1.419,0 -2.779,0.564 -3.782,1.567 -1.003,1.003 -1.567,2.363 -1.567,3.782 0,1.418 0.564,2.779 1.567,3.782 1.003,1.003 2.363,1.567 3.782,1.567 z"
       style="fill:none;stroke:#000000;stroke-linecap:butt;stroke-linejoin:round"
       id="path5020"
       inkscape:connector-curvature="0" />
  </g>
  <g
     id="patch_25"
     style="stroke-linecap:butt;stroke-linejoin:round">
    <path
       clip-path="url(#pbdb489e7fd)"
       d="m 445.373,191.519 c 1.418,0 2.779,-0.563 3.782,-1.566 1.003,-1.003 1.567,-2.364 1.567,-3.783 0,-1.418 -0.564,-2.779 -1.567,-3.782 -1.003,-1.003 -2.364,-1.566 -3.782,-1.566 -1.419,0 -2.779,0.563 -3.782,1.566 -1.003,1.003 -1.567,2.364 -1.567,3.782 0,1.419 0.564,2.78 1.567,3.783 1.003,1.003 2.363,1.566 3.782,1.566 z"
       style="fill:none;stroke:#000000;stroke-linecap:butt;stroke-linejoin:round"
       id="path5023"
       inkscape:connector-curvature="0" />
  </g>
  <defs
     id="defs5025">
    <clipPath
       id="pbdb489e7fd">
      <rect
         height="406.08"
         width="534.023013699"
         x="7.2"
         y="7.2"
         id="rect5028" />
    </clipPath>
  </defs>
</svg>
