<?xml version="1.0" encoding="UTF-8" standalone="no"?>
<!-- Created with matplotlib (http://matplotlib.org/) -->

<svg
   xmlns:dc="http://purl.org/dc/elements/1.1/"
   xmlns:cc="http://creativecommons.org/ns#"
   xmlns:rdf="http://www.w3.org/1999/02/22-rdf-syntax-ns#"
   xmlns:svg="http://www.w3.org/2000/svg"
   xmlns="http://www.w3.org/2000/svg"
   xmlns:sodipodi="http://sodipodi.sourceforge.net/DTD/sodipodi-0.dtd"
   xmlns:inkscape="http://www.inkscape.org/namespaces/inkscape"
   height="358pt"
   version="1.1"
   viewBox="0 0 564 358"
   width="564pt"
   id="svg4524"
   inkscape:version="0.91 r13725"
   sodipodi:docname="house_with_door.svg">
  <metadata
     id="metadata4625">
    <rdf:RDF>
      <cc:Work
         rdf:about="">
        <dc:format>image/svg+xml</dc:format>
        <dc:type
           rdf:resource="http://purl.org/dc/dcmitype/StillImage" />
      </cc:Work>
    </rdf:RDF>
  </metadata>
  <sodipodi:namedview
     pagecolor="#ffffff"
     bordercolor="#666666"
     borderopacity="1"
     objecttolerance="10"
     gridtolerance="10"
     guidetolerance="10"
     inkscape:pageopacity="0"
     inkscape:pageshadow="2"
     inkscape:window-width="1276"
     inkscape:window-height="755"
     id="namedview4623"
     showgrid="false"
     inkscape:zoom="1.1617021"
     inkscape:cx="352.5"
     inkscape:cy="223.75"
     inkscape:window-x="4"
     inkscape:window-y="1"
     inkscape:window-maximized="1"
     inkscape:current-layer="svg4524" />
  <defs
     id="defs4526">
    <style
       type="text/css"
       id="style4528">
*{stroke-linecap:butt;stroke-linejoin:round;}
  </style>
  </defs>
  <g
     id="line2d_1"
     style="stroke-linecap:butt;stroke-linejoin:round">
    <path
       clip-path="url(#p01b328f21b)"
       d="m 123.563,337.777 0,-211.569"
       style="fill:none;stroke:#008026;stroke-width:4;stroke-linecap:square;stroke-linejoin:round"
       id="path4539"
       inkscape:connector-curvature="0" />
  </g>
  <g
     id="line2d_2"
     style="stroke-linecap:butt;stroke-linejoin:round">
    <path
       clip-path="url(#p01b328f21b)"
       d="m 440.917,337.777 0,-211.569"
       style="fill:none;stroke:#008026;stroke-width:4;stroke-linecap:square;stroke-linejoin:round"
       id="path4542"
       inkscape:connector-curvature="0" />
  </g>
  <g
     id="line2d_3"
     style="stroke-linecap:butt;stroke-linejoin:round">
    <path
       clip-path="url(#p01b328f21b)"
       d="M 123.563,126.208 282.24,20.4231"
       style="fill:none;stroke:#008026;stroke-width:4;stroke-linecap:square;stroke-linejoin:round"
       id="path4545"
       inkscape:connector-curvature="0" />
  </g>
  <g
     id="line2d_4"
     style="stroke-linecap:butt;stroke-linejoin:round">
    <path
       clip-path="url(#p01b328f21b)"
       d="M 440.917,126.208 282.24,20.4231"
       style="fill:none;stroke:#008026;stroke-width:4;stroke-linecap:square;stroke-linejoin:round"
       id="path4548"
       inkscape:connector-curvature="0" />
  </g>
  <g
     id="line2d_5"
     style="stroke-linecap:butt;stroke-linejoin:round">
    <path
       clip-path="url(#p01b328f21b)"
       d="m 176.455,337.777 0,-158.677"
       style="fill:none;stroke:#008026;stroke-width:4;stroke-linecap:square;stroke-linejoin:round"
       id="path4551"
       inkscape:connector-curvature="0" />
  </g>
  <g
     id="line2d_6"
     style="stroke-linecap:butt;stroke-linejoin:round">
    <path
       clip-path="url(#p01b328f21b)"
       d="m 282.24,337.777 0,-158.677"
       style="fill:none;stroke:#008026;stroke-width:4;stroke-linecap:square;stroke-linejoin:round"
       id="path4554"
       inkscape:connector-curvature="0" />
  </g>
  <g
     id="line2d_7"
     style="stroke-linecap:butt;stroke-linejoin:round">
    <path
       clip-path="url(#p01b328f21b)"
       d="m 282.24,179.1 -105.785,0"
       style="fill:none;stroke:#008026;stroke-width:4;stroke-linecap:square;stroke-linejoin:round"
       id="path4557"
       inkscape:connector-curvature="0" />
  </g>
  <g
     id="matplotlib.axis_1"
     style="stroke-linecap:butt;stroke-linejoin:round" />
  <g
     id="matplotlib.axis_2"
     style="stroke-linecap:butt;stroke-linejoin:round" />
  <g
     id="line2d_8"
     style="stroke-linecap:butt;stroke-linejoin:round">
    <path
       clip-path="url(#p01b328f21b)"
       d="m 17.7785,337.777 528.9235,0"
       style="fill:none;stroke:#000000;stroke-width:2;stroke-linecap:square;stroke-linejoin:round"
       id="path4562"
       inkscape:connector-curvature="0" />
  </g>
  <g
     id="patch_3"
     style="stroke-linecap:butt;stroke-linejoin:round">
    <path
       clip-path="url(#p01b328f21b)"
       d="m 123.563,344.388 c 1.753,0 3.435,-0.696 4.675,-1.936 1.24,-1.24 1.937,-2.922 1.937,-4.675 0,-1.753 -0.697,-3.435 -1.937,-4.675 -1.24,-1.24 -2.922,-1.937 -4.675,-1.937 -1.753,0 -3.435,0.697 -4.675,1.937 -1.24,1.24 -1.936,2.922 -1.936,4.675 0,1.753 0.696,3.435 1.936,4.675 1.24,1.24 2.922,1.936 4.675,1.936 z"
       style="fill:#ffffff;stroke:#ffffff;stroke-linecap:butt;stroke-linejoin:round"
       id="path4565"
       inkscape:connector-curvature="0" />
  </g>
  <g
     id="patch_4"
     style="stroke-linecap:butt;stroke-linejoin:round">
    <path
       clip-path="url(#p01b328f21b)"
       d="m 440.917,344.388 c 1.753,0 3.435,-0.696 4.675,-1.936 1.24,-1.24 1.936,-2.922 1.936,-4.675 0,-1.753 -0.696,-3.435 -1.936,-4.675 -1.24,-1.24 -2.922,-1.937 -4.675,-1.937 -1.753,0 -3.435,0.697 -4.675,1.937 -1.24,1.24 -1.937,2.922 -1.937,4.675 0,1.753 0.697,3.435 1.937,4.675 1.24,1.24 2.922,1.936 4.675,1.936 z"
       style="fill:#ffffff;stroke:#ffffff;stroke-linecap:butt;stroke-linejoin:round"
       id="path4568"
       inkscape:connector-curvature="0" />
  </g>
  <g
     id="patch_5"
     style="stroke-linecap:butt;stroke-linejoin:round">
    <path
       clip-path="url(#p01b328f21b)"
       d="m 123.563,132.819 c 1.753,0 3.435,-0.696 4.675,-1.936 1.24,-1.24 1.937,-2.922 1.937,-4.675 0,-1.754 -0.697,-3.436 -1.937,-4.675 -1.24,-1.24 -2.922,-1.937 -4.675,-1.937 -1.753,0 -3.435,0.697 -4.675,1.937 -1.24,1.239 -1.936,2.921 -1.936,4.675 0,1.753 0.696,3.435 1.936,4.675 1.24,1.24 2.922,1.936 4.675,1.936 z"
       style="fill:#ffffff;stroke:#ffffff;stroke-linecap:butt;stroke-linejoin:round"
       id="path4571"
       inkscape:connector-curvature="0" />
  </g>
  <g
     id="patch_6"
     style="stroke-linecap:butt;stroke-linejoin:round">
    <path
       clip-path="url(#p01b328f21b)"
       d="m 440.917,132.819 c 1.753,0 3.435,-0.696 4.675,-1.936 1.24,-1.24 1.936,-2.922 1.936,-4.675 0,-1.754 -0.696,-3.436 -1.936,-4.675 -1.24,-1.24 -2.922,-1.937 -4.675,-1.937 -1.753,0 -3.435,0.697 -4.675,1.937 -1.24,1.239 -1.937,2.921 -1.937,4.675 0,1.753 0.697,3.435 1.937,4.675 1.24,1.24 2.922,1.936 4.675,1.936 z"
       style="fill:#ffffff;stroke:#ffffff;stroke-linecap:butt;stroke-linejoin:round"
       id="path4574"
       inkscape:connector-curvature="0" />
  </g>
  <g
     id="patch_7"
     style="stroke-linecap:butt;stroke-linejoin:round">
    <path
       clip-path="url(#p01b328f21b)"
       d="m 282.24,27.0346 c 1.753,0 3.435,-0.6966 4.675,-1.9365 1.24,-1.2398 1.937,-2.9216 1.937,-4.675 0,-1.7534 -0.697,-3.4352 -1.937,-4.6751 -1.24,-1.2398 -2.922,-1.9365 -4.675,-1.9365 -1.753,0 -3.435,0.6967 -4.675,1.9365 -1.24,1.2399 -1.937,2.9217 -1.937,4.6751 0,1.7534 0.697,3.4352 1.937,4.675 1.24,1.2399 2.922,1.9365 4.675,1.9365 z"
       style="fill:#ffffff;stroke:#ffffff;stroke-linecap:butt;stroke-linejoin:round"
       id="path4577"
       inkscape:connector-curvature="0" />
  </g>
  <g
     id="patch_8"
     style="stroke-linecap:butt;stroke-linejoin:round">
    <path
       clip-path="url(#p01b328f21b)"
       d="m 176.455,344.388 c 1.754,0 3.436,-0.696 4.675,-1.936 1.24,-1.24 1.937,-2.922 1.937,-4.675 0,-1.753 -0.697,-3.435 -1.937,-4.675 -1.239,-1.24 -2.921,-1.937 -4.675,-1.937 -1.753,0 -3.435,0.697 -4.675,1.937 -1.24,1.24 -1.936,2.922 -1.936,4.675 0,1.753 0.696,3.435 1.936,4.675 1.24,1.24 2.922,1.936 4.675,1.936 z"
       style="fill:#ffffff;stroke:#ffffff;stroke-linecap:butt;stroke-linejoin:round"
       id="path4580"
       inkscape:connector-curvature="0" />
  </g>
  <g
     id="patch_9"
     style="stroke-linecap:butt;stroke-linejoin:round">
    <path
       clip-path="url(#p01b328f21b)"
       d="m 282.24,344.388 c 1.753,0 3.435,-0.696 4.675,-1.936 1.24,-1.24 1.937,-2.922 1.937,-4.675 0,-1.753 -0.697,-3.435 -1.937,-4.675 -1.24,-1.24 -2.922,-1.937 -4.675,-1.937 -1.753,0 -3.435,0.697 -4.675,1.937 -1.24,1.24 -1.937,2.922 -1.937,4.675 0,1.753 0.697,3.435 1.937,4.675 1.24,1.24 2.922,1.936 4.675,1.936 z"
       style="fill:#ffffff;stroke:#ffffff;stroke-linecap:butt;stroke-linejoin:round"
       id="path4583"
       inkscape:connector-curvature="0" />
  </g>
  <g
     id="patch_10"
     style="stroke-linecap:butt;stroke-linejoin:round">
    <path
       clip-path="url(#p01b328f21b)"
       d="m 282.24,185.712 c 1.753,0 3.435,-0.697 4.675,-1.937 1.24,-1.24 1.937,-2.922 1.937,-4.675 0,-1.753 -0.697,-3.435 -1.937,-4.675 -1.24,-1.24 -2.922,-1.937 -4.675,-1.937 -1.753,0 -3.435,0.697 -4.675,1.937 -1.24,1.24 -1.937,2.922 -1.937,4.675 0,1.753 0.697,3.435 1.937,4.675 1.24,1.24 2.922,1.937 4.675,1.937 z"
       style="fill:#ffffff;stroke:#ffffff;stroke-linecap:butt;stroke-linejoin:round"
       id="path4586"
       inkscape:connector-curvature="0" />
  </g>
  <g
     id="patch_11"
     style="stroke-linecap:butt;stroke-linejoin:round">
    <path
       clip-path="url(#p01b328f21b)"
       d="m 176.455,185.712 c 1.754,0 3.436,-0.697 4.675,-1.937 1.24,-1.24 1.937,-2.922 1.937,-4.675 0,-1.753 -0.697,-3.435 -1.937,-4.675 -1.239,-1.24 -2.921,-1.937 -4.675,-1.937 -1.753,0 -3.435,0.697 -4.675,1.937 -1.24,1.24 -1.936,2.922 -1.936,4.675 0,1.753 0.696,3.435 1.936,4.675 1.24,1.24 2.922,1.937 4.675,1.937 z"
       style="fill:#ffffff;stroke:#ffffff;stroke-linecap:butt;stroke-linejoin:round"
       id="path4589"
       inkscape:connector-curvature="0" />
  </g>
  <g
     id="patch_12"
     style="stroke-linecap:butt;stroke-linejoin:round">
    <path
       clip-path="url(#p01b328f21b)"
       d="m 123.563,344.388 c 1.753,0 3.435,-0.696 4.675,-1.936 1.24,-1.24 1.937,-2.922 1.937,-4.675 0,-1.753 -0.697,-3.435 -1.937,-4.675 -1.24,-1.24 -2.922,-1.937 -4.675,-1.937 -1.753,0 -3.435,0.697 -4.675,1.937 -1.24,1.24 -1.936,2.922 -1.936,4.675 0,1.753 0.696,3.435 1.936,4.675 1.24,1.24 2.922,1.936 4.675,1.936 z"
       style="fill:none;stroke:#000000;stroke-linecap:butt;stroke-linejoin:round"
       id="path4592"
       inkscape:connector-curvature="0" />
  </g>
  <g
     id="patch_13"
     style="stroke-linecap:butt;stroke-linejoin:round">
    <path
       clip-path="url(#p01b328f21b)"
       d="m 440.917,344.388 c 1.753,0 3.435,-0.696 4.675,-1.936 1.24,-1.24 1.936,-2.922 1.936,-4.675 0,-1.753 -0.696,-3.435 -1.936,-4.675 -1.24,-1.24 -2.922,-1.937 -4.675,-1.937 -1.753,0 -3.435,0.697 -4.675,1.937 -1.24,1.24 -1.937,2.922 -1.937,4.675 0,1.753 0.697,3.435 1.937,4.675 1.24,1.24 2.922,1.936 4.675,1.936 z"
       style="fill:none;stroke:#000000;stroke-linecap:butt;stroke-linejoin:round"
       id="path4595"
       inkscape:connector-curvature="0" />
  </g>
  <g
     id="patch_14"
     style="stroke-linecap:butt;stroke-linejoin:round">
    <path
       clip-path="url(#p01b328f21b)"
       d="m 123.563,132.819 c 1.753,0 3.435,-0.696 4.675,-1.936 1.24,-1.24 1.937,-2.922 1.937,-4.675 0,-1.754 -0.697,-3.436 -1.937,-4.675 -1.24,-1.24 -2.922,-1.937 -4.675,-1.937 -1.753,0 -3.435,0.697 -4.675,1.937 -1.24,1.239 -1.936,2.921 -1.936,4.675 0,1.753 0.696,3.435 1.936,4.675 1.24,1.24 2.922,1.936 4.675,1.936 z"
       style="fill:none;stroke:#000000;stroke-linecap:butt;stroke-linejoin:round"
       id="path4598"
       inkscape:connector-curvature="0" />
  </g>
  <g
     id="patch_15"
     style="stroke-linecap:butt;stroke-linejoin:round">
    <path
       clip-path="url(#p01b328f21b)"
       d="m 440.917,132.819 c 1.753,0 3.435,-0.696 4.675,-1.936 1.24,-1.24 1.936,-2.922 1.936,-4.675 0,-1.754 -0.696,-3.436 -1.936,-4.675 -1.24,-1.24 -2.922,-1.937 -4.675,-1.937 -1.753,0 -3.435,0.697 -4.675,1.937 -1.24,1.239 -1.937,2.921 -1.937,4.675 0,1.753 0.697,3.435 1.937,4.675 1.24,1.24 2.922,1.936 4.675,1.936 z"
       style="fill:none;stroke:#000000;stroke-linecap:butt;stroke-linejoin:round"
       id="path4601"
       inkscape:connector-curvature="0" />
  </g>
  <g
     id="patch_16"
     style="stroke-linecap:butt;stroke-linejoin:round">
    <path
       clip-path="url(#p01b328f21b)"
       d="m 282.24,27.0346 c 1.753,0 3.435,-0.6966 4.675,-1.9365 1.24,-1.2398 1.937,-2.9216 1.937,-4.675 0,-1.7534 -0.697,-3.4352 -1.937,-4.6751 -1.24,-1.2398 -2.922,-1.9365 -4.675,-1.9365 -1.753,0 -3.435,0.6967 -4.675,1.9365 -1.24,1.2399 -1.937,2.9217 -1.937,4.6751 0,1.7534 0.697,3.4352 1.937,4.675 1.24,1.2399 2.922,1.9365 4.675,1.9365 z"
       style="fill:none;stroke:#000000;stroke-linecap:butt;stroke-linejoin:round"
       id="path4604"
       inkscape:connector-curvature="0" />
  </g>
  <g
     id="patch_17"
     style="stroke-linecap:butt;stroke-linejoin:round">
    <path
       clip-path="url(#p01b328f21b)"
       d="m 176.455,344.388 c 1.754,0 3.436,-0.696 4.675,-1.936 1.24,-1.24 1.937,-2.922 1.937,-4.675 0,-1.753 -0.697,-3.435 -1.937,-4.675 -1.239,-1.24 -2.921,-1.937 -4.675,-1.937 -1.753,0 -3.435,0.697 -4.675,1.937 -1.24,1.24 -1.936,2.922 -1.936,4.675 0,1.753 0.696,3.435 1.936,4.675 1.24,1.24 2.922,1.936 4.675,1.936 z"
       style="fill:none;stroke:#000000;stroke-linecap:butt;stroke-linejoin:round"
       id="path4607"
       inkscape:connector-curvature="0" />
  </g>
  <g
     id="patch_18"
     style="stroke-linecap:butt;stroke-linejoin:round">
    <path
       clip-path="url(#p01b328f21b)"
       d="m 282.24,344.388 c 1.753,0 3.435,-0.696 4.675,-1.936 1.24,-1.24 1.937,-2.922 1.937,-4.675 0,-1.753 -0.697,-3.435 -1.937,-4.675 -1.24,-1.24 -2.922,-1.937 -4.675,-1.937 -1.753,0 -3.435,0.697 -4.675,1.937 -1.24,1.24 -1.937,2.922 -1.937,4.675 0,1.753 0.697,3.435 1.937,4.675 1.24,1.24 2.922,1.936 4.675,1.936 z"
       style="fill:none;stroke:#000000;stroke-linecap:butt;stroke-linejoin:round"
       id="path4610"
       inkscape:connector-curvature="0" />
  </g>
  <g
     id="patch_19"
     style="stroke-linecap:butt;stroke-linejoin:round">
    <path
       clip-path="url(#p01b328f21b)"
       d="m 282.24,185.712 c 1.753,0 3.435,-0.697 4.675,-1.937 1.24,-1.24 1.937,-2.922 1.937,-4.675 0,-1.753 -0.697,-3.435 -1.937,-4.675 -1.24,-1.24 -2.922,-1.937 -4.675,-1.937 -1.753,0 -3.435,0.697 -4.675,1.937 -1.24,1.24 -1.937,2.922 -1.937,4.675 0,1.753 0.697,3.435 1.937,4.675 1.24,1.24 2.922,1.937 4.675,1.937 z"
       style="fill:none;stroke:#000000;stroke-linecap:butt;stroke-linejoin:round"
       id="path4613"
       inkscape:connector-curvature="0" />
  </g>
  <g
     id="patch_20"
     style="stroke-linecap:butt;stroke-linejoin:round">
    <path
       clip-path="url(#p01b328f21b)"
       d="m 176.455,185.712 c 1.754,0 3.436,-0.697 4.675,-1.937 1.24,-1.24 1.937,-2.922 1.937,-4.675 0,-1.753 -0.697,-3.435 -1.937,-4.675 -1.239,-1.24 -2.921,-1.937 -4.675,-1.937 -1.753,0 -3.435,0.697 -4.675,1.937 -1.24,1.24 -1.936,2.922 -1.936,4.675 0,1.753 0.696,3.435 1.936,4.675 1.24,1.24 2.922,1.937 4.675,1.937 z"
       style="fill:none;stroke:#000000;stroke-linecap:butt;stroke-linejoin:round"
       id="path4616"
       inkscape:connector-curvature="0" />
  </g>
  <defs
     id="defs4618">
    <clipPath
       id="p01b328f21b">
      <rect
         height="343.8"
         width="550.08"
         x="7.2"
         y="7.2"
         id="rect4621" />
    </clipPath>
  </defs>
</svg>
