<?xml version="1.0" encoding="UTF-8" standalone="no"?>
<!-- Created with matplotlib (http://matplotlib.org/) -->

<svg
   xmlns:dc="http://purl.org/dc/elements/1.1/"
   xmlns:cc="http://creativecommons.org/ns#"
   xmlns:rdf="http://www.w3.org/1999/02/22-rdf-syntax-ns#"
   xmlns:svg="http://www.w3.org/2000/svg"
   xmlns="http://www.w3.org/2000/svg"
   xmlns:sodipodi="http://sodipodi.sourceforge.net/DTD/sodipodi-0.dtd"
   xmlns:inkscape="http://www.inkscape.org/namespaces/inkscape"
   height="420pt"
   version="1.1"
   viewBox="0 0 217 420"
   width="217pt"
   id="svg4248"
   inkscape:version="0.91 r13725"
   sodipodi:docname="red_blue_red_blue_stick.svg">
  <metadata
     id="metadata4304">
    <rdf:RDF>
      <cc:Work
         rdf:about="">
        <dc:format>image/svg+xml</dc:format>
        <dc:type
           rdf:resource="http://purl.org/dc/dcmitype/StillImage" />
      </cc:Work>
    </rdf:RDF>
  </metadata>
  <sodipodi:namedview
     pagecolor="#ffffff"
     bordercolor="#666666"
     borderopacity="1"
     objecttolerance="10"
     gridtolerance="10"
     guidetolerance="10"
     inkscape:pageopacity="0"
     inkscape:pageshadow="2"
     inkscape:window-width="1276"
     inkscape:window-height="755"
     id="namedview4302"
     showgrid="false"
     inkscape:zoom="1.0533333"
     inkscape:cx="135.625"
     inkscape:cy="262.5"
     inkscape:window-x="4"
     inkscape:window-y="1"
     inkscape:window-maximized="1"
     inkscape:current-layer="svg4248" />
  <defs
     id="defs4250">
    <style
       type="text/css"
       id="style4252">
*{stroke-linecap:butt;stroke-linejoin:round;}
  </style>
  </defs>
  <g
     id="line2d_1"
     style="stroke-linecap:butt;stroke-linejoin:round">
    <path
       clip-path="url(#p461c2f327b)"
       d="m 11.1046,405.471 195.2304,0"
       style="fill:none;stroke:#000000;stroke-width:2;stroke-linecap:square;stroke-linejoin:round"
       id="path4263"
       inkscape:connector-curvature="0" />
  </g>
  <g
     id="line2d_2"
     style="stroke-linecap:butt;stroke-linejoin:round">
    <path
       clip-path="url(#p461c2f327b)"
       d="m 108.72,405.471 0,-97.616"
       style="fill:none;stroke:#ff0000;stroke-width:4;stroke-linecap:square;stroke-linejoin:round"
       id="path4266"
       inkscape:connector-curvature="0" />
  </g>
  <g
     id="line2d_3"
     style="stroke-linecap:butt;stroke-linejoin:round">
    <path
       clip-path="url(#p461c2f327b)"
       d="m 108.72,307.855 0,-97.615"
       style="fill:none;stroke:#0000ff;stroke-width:4;stroke-linecap:square;stroke-linejoin:round"
       id="path4269"
       inkscape:connector-curvature="0" />
  </g>
  <g
     id="line2d_4"
     style="stroke-linecap:butt;stroke-linejoin:round">
    <path
       clip-path="url(#p461c2f327b)"
       d="m 108.72,210.24 0,-97.615"
       style="fill:none;stroke:#ff0000;stroke-width:4;stroke-linecap:square;stroke-linejoin:round"
       id="path4272"
       inkscape:connector-curvature="0" />
  </g>
  <g
     id="line2d_5"
     style="stroke-linecap:butt;stroke-linejoin:round">
    <path
       clip-path="url(#p461c2f327b)"
       d="m 108.72,112.625 0,-97.6158"
       style="fill:none;stroke:#0000ff;stroke-width:4;stroke-linecap:square;stroke-linejoin:round"
       id="path4275"
       inkscape:connector-curvature="0" />
  </g>
  <g
     id="matplotlib.axis_1"
     style="stroke-linecap:butt;stroke-linejoin:round" />
  <g
     id="matplotlib.axis_2"
     style="stroke-linecap:butt;stroke-linejoin:round" />
  <g
     id="patch_3"
     style="stroke-linecap:butt;stroke-linejoin:round">
    <path
       clip-path="url(#p461c2f327b)"
       d="m 108.72,310.296 c 0.647,0 1.268,-0.257 1.726,-0.715 0.457,-0.458 0.714,-1.078 0.714,-1.726 0,-0.647 -0.257,-1.268 -0.714,-1.725 -0.458,-0.458 -1.079,-0.715 -1.726,-0.715 -0.647,0 -1.268,0.257 -1.726,0.715 -0.457,0.457 -0.714,1.078 -0.714,1.725 0,0.648 0.257,1.268 0.714,1.726 0.458,0.458 1.079,0.715 1.726,0.715 z"
       style="fill:#ffffff;stroke:#ffffff;stroke-linecap:butt;stroke-linejoin:round"
       id="path4280"
       inkscape:connector-curvature="0" />
  </g>
  <g
     id="patch_4"
     style="stroke-linecap:butt;stroke-linejoin:round">
    <path
       clip-path="url(#p461c2f327b)"
       d="m 108.72,212.68 c 0.647,0 1.268,-0.257 1.726,-0.714 0.457,-0.458 0.714,-1.079 0.714,-1.726 0,-0.647 -0.257,-1.268 -0.714,-1.726 -0.458,-0.457 -1.079,-0.714 -1.726,-0.714 -0.647,0 -1.268,0.257 -1.726,0.714 -0.457,0.458 -0.714,1.079 -0.714,1.726 0,0.647 0.257,1.268 0.714,1.726 0.458,0.457 1.079,0.714 1.726,0.714 z"
       style="fill:#ffffff;stroke:#ffffff;stroke-linecap:butt;stroke-linejoin:round"
       id="path4283"
       inkscape:connector-curvature="0" />
  </g>
  <g
     id="patch_5"
     style="stroke-linecap:butt;stroke-linejoin:round">
    <path
       clip-path="url(#p461c2f327b)"
       d="m 108.72,115.065 c 0.647,0 1.268,-0.257 1.726,-0.715 0.457,-0.457 0.714,-1.078 0.714,-1.725 0,-0.648 -0.257,-1.268 -0.714,-1.726 -0.458,-0.458 -1.079,-0.715 -1.726,-0.715 -0.647,0 -1.268,0.257 -1.726,0.715 -0.457,0.458 -0.714,1.078 -0.714,1.726 0,0.647 0.257,1.268 0.714,1.725 0.458,0.458 1.079,0.715 1.726,0.715 z"
       style="fill:#ffffff;stroke:#ffffff;stroke-linecap:butt;stroke-linejoin:round"
       id="path4286"
       inkscape:connector-curvature="0" />
  </g>
  <g
     id="patch_6"
     style="stroke-linecap:butt;stroke-linejoin:round">
    <path
       clip-path="url(#p461c2f327b)"
       d="m 108.72,310.296 c 0.647,0 1.268,-0.257 1.726,-0.715 0.457,-0.458 0.714,-1.078 0.714,-1.726 0,-0.647 -0.257,-1.268 -0.714,-1.725 -0.458,-0.458 -1.079,-0.715 -1.726,-0.715 -0.647,0 -1.268,0.257 -1.726,0.715 -0.457,0.457 -0.714,1.078 -0.714,1.725 0,0.648 0.257,1.268 0.714,1.726 0.458,0.458 1.079,0.715 1.726,0.715 z"
       style="fill:none;stroke:#000000;stroke-width:2;stroke-linecap:butt;stroke-linejoin:round"
       id="path4289"
       inkscape:connector-curvature="0" />
  </g>
  <g
     id="patch_7"
     style="stroke-linecap:butt;stroke-linejoin:round">
    <path
       clip-path="url(#p461c2f327b)"
       d="m 108.72,212.68 c 0.647,0 1.268,-0.257 1.726,-0.714 0.457,-0.458 0.714,-1.079 0.714,-1.726 0,-0.647 -0.257,-1.268 -0.714,-1.726 -0.458,-0.457 -1.079,-0.714 -1.726,-0.714 -0.647,0 -1.268,0.257 -1.726,0.714 -0.457,0.458 -0.714,1.079 -0.714,1.726 0,0.647 0.257,1.268 0.714,1.726 0.458,0.457 1.079,0.714 1.726,0.714 z"
       style="fill:none;stroke:#000000;stroke-width:2;stroke-linecap:butt;stroke-linejoin:round"
       id="path4292"
       inkscape:connector-curvature="0" />
  </g>
  <g
     id="patch_8"
     style="stroke-linecap:butt;stroke-linejoin:round">
    <path
       clip-path="url(#p461c2f327b)"
       d="m 108.72,115.065 c 0.647,0 1.268,-0.257 1.726,-0.715 0.457,-0.457 0.714,-1.078 0.714,-1.725 0,-0.648 -0.257,-1.268 -0.714,-1.726 -0.458,-0.458 -1.079,-0.715 -1.726,-0.715 -0.647,0 -1.268,0.257 -1.726,0.715 -0.457,0.458 -0.714,1.078 -0.714,1.726 0,0.647 0.257,1.268 0.714,1.725 0.458,0.458 1.079,0.715 1.726,0.715 z"
       style="fill:none;stroke:#000000;stroke-width:2;stroke-linecap:butt;stroke-linejoin:round"
       id="path4295"
       inkscape:connector-curvature="0" />
  </g>
  <defs
     id="defs4297">
    <clipPath
       id="p461c2f327b">
      <rect
         height="406.08"
         width="203.04"
         x="7.2"
         y="7.2"
         id="rect4300" />
    </clipPath>
  </defs>
</svg>
