<?xml version="1.0" encoding="UTF-8" standalone="no"?>
<svg
   xmlns:dc="http://purl.org/dc/elements/1.1/"
   xmlns:cc="http://creativecommons.org/ns#"
   xmlns:rdf="http://www.w3.org/1999/02/22-rdf-syntax-ns#"
   xmlns:svg="http://www.w3.org/2000/svg"
   xmlns="http://www.w3.org/2000/svg"
   id="svg5204"
   width="564pt"
   viewBox="0 0 564 399"
   version="1.1"
   height="399pt">
  <metadata
     id="metadata5251">
    <rdf:RDF>
      <cc:Work
         rdf:about="">
        <dc:format>image/svg+xml</dc:format>
        <dc:type
           rdf:resource="http://purl.org/dc/dcmitype/StillImage" />
        <dc:title></dc:title>
      </cc:Work>
    </rdf:RDF>
  </metadata>
  <defs
     id="defs5206">
    <style
       id="style5208"
       type="text/css">
*{stroke-linecap:butt;stroke-linejoin:round;}
  </style>
  </defs>
  <g
     style="stroke-linecap:butt;stroke-linejoin:round"
     id="line2d_1">
    <path
       id="path5219"
       style="fill:none;stroke:#000000;stroke-width:2;stroke-linecap:square;stroke-linejoin:round"
       d="m 17.7785,384.851 528.9235,0"
       clip-path="url(#pf19d8a339f)" />
  </g>
  <g
     style="stroke-linecap:butt;stroke-linejoin:round"
     id="patch_3">
    <path
       id="path5222"
       style="fill:none;stroke:#ff0000;stroke-width:4;stroke-linecap:butt;stroke-linejoin:round"
       d="m 282.24,384.851 q -52.892,-66.115 0,-132.231 52.892,-66.115 0,-132.23"
       clip-path="url(#pf19d8a339f)" />
  </g>
  <g
     style="stroke-linecap:butt;stroke-linejoin:round"
     id="patch_4">
    <path
       id="path5225"
       style="fill:none;stroke:#ff0000;stroke-width:4;stroke-linecap:butt;stroke-linejoin:round"
       d="m 176.455,120.39 q 52.893,132.23 105.785,132.23 52.892,0 105.785,-132.23"
       clip-path="url(#pf19d8a339f)" />
  </g>
  <g
     style="stroke-linecap:butt;stroke-linejoin:round"
     id="matplotlib.axis_1" />
  <g
     style="stroke-linecap:butt;stroke-linejoin:round"
     id="matplotlib.axis_2" />
  <g
     style="stroke-linecap:butt;stroke-linejoin:round"
     id="patch_5">
    <path
       id="path5230"
       style="fill:none;stroke:#ff0000;stroke-width:4;stroke-linecap:butt;stroke-linejoin:round"
       d="m 282.24,120.39 c 14.027,0 27.482,-5.574 37.401,-15.492 9.918,-9.919 15.491,-23.3736 15.491,-37.4008 0,-14.0272 -5.573,-27.4817 -15.491,-37.4005 -9.919,-9.9187 -23.374,-15.4918 -37.401,-15.4918 -14.027,0 -27.482,5.5731 -37.401,15.4918 -9.918,9.9188 -15.491,23.3733 -15.491,37.4005 0,14.0272 5.573,27.4818 15.491,37.4008 9.919,9.918 23.374,15.492 37.401,15.492 z"
       clip-path="url(#pf19d8a339f)" />
  </g>
  <g
     style="stroke-linecap:butt;stroke-linejoin:round"
     id="patch_6">
    <path
       id="path5233"
       style="fill:#ffffff;stroke:#ffffff;stroke-linecap:butt;stroke-linejoin:round"
       d="m 282.24,259.232 c 1.753,0 3.435,-0.697 4.675,-1.937 1.24,-1.239 1.937,-2.921 1.937,-4.675 0,-1.753 -0.697,-3.435 -1.937,-4.675 -1.24,-1.24 -2.922,-1.936 -4.675,-1.936 -1.753,0 -3.435,0.696 -4.675,1.936 -1.24,1.24 -1.937,2.922 -1.937,4.675 0,1.754 0.697,3.436 1.937,4.675 1.24,1.24 2.922,1.937 4.675,1.937 z"
       clip-path="url(#pf19d8a339f)" />
  </g>
  <g
     style="stroke-linecap:butt;stroke-linejoin:round"
     id="patch_7">
    <path
       id="path5236"
       style="fill:#ffffff;stroke:#ffffff;stroke-linecap:butt;stroke-linejoin:round"
       d="m 282.24,127.001 c 1.753,0 3.435,-0.697 4.675,-1.936 1.24,-1.24 1.937,-2.922 1.937,-4.675 0,-1.754 -0.697,-3.436 -1.937,-4.676 -1.24,-1.239 -2.922,-1.936 -4.675,-1.936 -1.753,0 -3.435,0.697 -4.675,1.936 -1.24,1.24 -1.937,2.922 -1.937,4.676 0,1.753 0.697,3.435 1.937,4.675 1.24,1.239 2.922,1.936 4.675,1.936 z"
       clip-path="url(#pf19d8a339f)" />
  </g>
  <g
     style="stroke-linecap:butt;stroke-linejoin:round"
     id="patch_8">
    <path
       id="path5239"
       style="fill:none;stroke:#000000;stroke-width:2;stroke-linecap:butt;stroke-linejoin:round"
       d="m 282.24,259.232 c 1.753,0 3.435,-0.697 4.675,-1.937 1.24,-1.239 1.937,-2.921 1.937,-4.675 0,-1.753 -0.697,-3.435 -1.937,-4.675 -1.24,-1.24 -2.922,-1.936 -4.675,-1.936 -1.753,0 -3.435,0.696 -4.675,1.936 -1.24,1.24 -1.937,2.922 -1.937,4.675 0,1.754 0.697,3.436 1.937,4.675 1.24,1.24 2.922,1.937 4.675,1.937 z"
       clip-path="url(#pf19d8a339f)" />
  </g>
  <g
     style="stroke-linecap:butt;stroke-linejoin:round"
     id="patch_9">
    <path
       id="path5242"
       style="fill:none;stroke:#000000;stroke-width:2;stroke-linecap:butt;stroke-linejoin:round"
       d="m 282.24,127.001 c 1.753,0 3.435,-0.697 4.675,-1.936 1.24,-1.24 1.937,-2.922 1.937,-4.675 0,-1.754 -0.697,-3.436 -1.937,-4.676 -1.24,-1.239 -2.922,-1.936 -4.675,-1.936 -1.753,0 -3.435,0.697 -4.675,1.936 -1.24,1.24 -1.937,2.922 -1.937,4.676 0,1.753 0.697,3.435 1.937,4.675 1.24,1.239 2.922,1.936 4.675,1.936 z"
       clip-path="url(#pf19d8a339f)" />
  </g>
  <defs
     id="defs5244">
    <clipPath
       id="pf19d8a339f">
      <rect
         id="rect5247"
         y="7.2"
         x="7.2"
         width="550.08"
         height="385.056" />
    </clipPath>
  </defs>
</svg>
