<?xml version="1.0" encoding="UTF-8" standalone="no"?>
<!-- Created with matplotlib (http://matplotlib.org/) -->

<svg
   xmlns:dc="http://purl.org/dc/elements/1.1/"
   xmlns:cc="http://creativecommons.org/ns#"
   xmlns:rdf="http://www.w3.org/1999/02/22-rdf-syntax-ns#"
   xmlns:svg="http://www.w3.org/2000/svg"
   xmlns="http://www.w3.org/2000/svg"
   xmlns:sodipodi="http://sodipodi.sourceforge.net/DTD/sodipodi-0.dtd"
   xmlns:inkscape="http://www.inkscape.org/namespaces/inkscape"
   height="210pt"
   version="1.1"
   viewBox="0 0 564 210"
   width="564pt"
   id="svg4715"
   inkscape:version="0.91 r13725"
   sodipodi:docname="red_and_blue_flowers.svg">
  <metadata
     id="metadata4786">
    <rdf:RDF>
      <cc:Work
         rdf:about="">
        <dc:format>image/svg+xml</dc:format>
        <dc:type
           rdf:resource="http://purl.org/dc/dcmitype/StillImage" />
      </cc:Work>
    </rdf:RDF>
  </metadata>
  <sodipodi:namedview
     pagecolor="#ffffff"
     bordercolor="#666666"
     borderopacity="1"
     objecttolerance="10"
     gridtolerance="10"
     guidetolerance="10"
     inkscape:pageopacity="0"
     inkscape:pageshadow="2"
     inkscape:window-width="1276"
     inkscape:window-height="755"
     id="namedview4784"
     showgrid="false"
     inkscape:zoom="1.1617021"
     inkscape:cx="352.5"
     inkscape:cy="131.25"
     inkscape:window-x="4"
     inkscape:window-y="1"
     inkscape:window-maximized="1"
     inkscape:current-layer="svg4715" />
  <defs
     id="defs4717">
    <style
       type="text/css"
       id="style4719">
*{stroke-linecap:butt;stroke-linejoin:round;}
  </style>
  </defs>
  <g
     id="line2d_1"
     style="stroke-linecap:butt;stroke-linejoin:round">
    <path
       clip-path="url(#p13be516944)"
       d="m 17.7785,196.092 264.4615,0"
       style="fill:none;stroke:#000000;stroke-width:2;stroke-linecap:square;stroke-linejoin:round"
       id="path4730"
       inkscape:connector-curvature="0" />
  </g>
  <g
     id="patch_3"
     style="stroke-linecap:butt;stroke-linejoin:round">
    <path
       clip-path="url(#p13be516944)"
       d="m 150.009,196.092 q -26.446,-33.058 0,-66.116 26.446,-33.0574 0,-66.1151"
       style="fill:none;stroke:#ff0000;stroke-width:4;stroke-linecap:butt;stroke-linejoin:round"
       id="path4733"
       inkscape:connector-curvature="0" />
  </g>
  <g
     id="patch_4"
     style="stroke-linecap:butt;stroke-linejoin:round">
    <path
       clip-path="url(#p13be516944)"
       d="m 97.1169,63.8609 q 26.4461,66.1151 52.8921,66.1151 26.446,0 52.893,-66.1151"
       style="fill:none;stroke:#ff0000;stroke-width:4;stroke-linecap:butt;stroke-linejoin:round"
       id="path4736"
       inkscape:connector-curvature="0" />
  </g>
  <g
     id="patch_5"
     style="stroke-linecap:butt;stroke-linejoin:round">
    <path
       clip-path="url(#p13be516944)"
       d="m 388.025,143.199 q 0,39.67 26.446,52.893 26.446,-13.223 26.446,-52.893"
       style="fill:none;stroke:#0000ff;stroke-width:4;stroke-linecap:butt;stroke-linejoin:round"
       id="path4739"
       inkscape:connector-curvature="0" />
  </g>
  <g
     id="line2d_2"
     style="stroke-linecap:butt;stroke-linejoin:round">
    <path
       clip-path="url(#p13be516944)"
       d="m 282.24,196.092 264.462,0"
       style="fill:none;stroke:#000000;stroke-width:2;stroke-linecap:square;stroke-linejoin:round"
       id="path4742"
       inkscape:connector-curvature="0" />
  </g>
  <g
     id="line2d_3"
     style="stroke-linecap:butt;stroke-linejoin:round">
    <path
       clip-path="url(#p13be516944)"
       d="m 414.471,196.092 0,-132.2311"
       style="fill:none;stroke:#0000ff;stroke-width:4;stroke-linecap:square;stroke-linejoin:round"
       id="path4745"
       inkscape:connector-curvature="0" />
  </g>
  <g
     id="matplotlib.axis_1"
     style="stroke-linecap:butt;stroke-linejoin:round" />
  <g
     id="matplotlib.axis_2"
     style="stroke-linecap:butt;stroke-linejoin:round" />
  <g
     id="patch_6"
     style="stroke-linecap:butt;stroke-linejoin:round">
    <path
       clip-path="url(#p13be516944)"
       d="m 150.009,63.8609 c 7.014,0 13.741,-2.7865 18.7,-7.7459 4.96,-4.9594 7.746,-11.6867 7.746,-18.7003 0,-7.0136 -2.786,-13.7409 -7.746,-18.7002 -4.959,-4.9594 -11.686,-7.7459 -18.7,-7.7459 -7.013,0 -13.741,2.7865 -18.7,7.7459 -4.959,4.9593 -7.746,11.6866 -7.746,18.7002 0,7.0136 2.787,13.7409 7.746,18.7003 4.959,4.9594 11.687,7.7459 18.7,7.7459 z"
       style="fill:none;stroke:#ff0000;stroke-width:4;stroke-linecap:butt;stroke-linejoin:round"
       id="path4750"
       inkscape:connector-curvature="0" />
  </g>
  <g
     id="patch_7"
     style="stroke-linecap:butt;stroke-linejoin:round">
    <path
       clip-path="url(#p13be516944)"
       d="m 150.009,133.282 c 0.877,0 1.718,-0.348 2.338,-0.968 0.62,-0.62 0.968,-1.461 0.968,-2.338 0,-0.876 -0.348,-1.717 -0.968,-2.337 -0.62,-0.62 -1.461,-0.968 -2.338,-0.968 -0.876,0 -1.717,0.348 -2.337,0.968 -0.62,0.62 -0.969,1.461 -0.969,2.337 0,0.877 0.349,1.718 0.969,2.338 0.62,0.62 1.461,0.968 2.337,0.968 z"
       style="fill:#ffffff;stroke:#ffffff;stroke-linecap:butt;stroke-linejoin:round"
       id="path4753"
       inkscape:connector-curvature="0" />
  </g>
  <g
     id="patch_8"
     style="stroke-linecap:butt;stroke-linejoin:round">
    <path
       clip-path="url(#p13be516944)"
       d="m 150.009,67.1667 c 0.877,0 1.718,-0.3484 2.338,-0.9683 0.62,-0.6199 0.968,-1.4608 0.968,-2.3375 0,-0.8767 -0.348,-1.7176 -0.968,-2.3375 -0.62,-0.62 -1.461,-0.9683 -2.338,-0.9683 -0.876,0 -1.717,0.3483 -2.337,0.9683 -0.62,0.6199 -0.969,1.4608 -0.969,2.3375 0,0.8767 0.349,1.7176 0.969,2.3375 0.62,0.6199 1.461,0.9683 2.337,0.9683 z"
       style="fill:#ffffff;stroke:#ffffff;stroke-linecap:butt;stroke-linejoin:round"
       id="path4756"
       inkscape:connector-curvature="0" />
  </g>
  <g
     id="patch_9"
     style="stroke-linecap:butt;stroke-linejoin:round">
    <path
       clip-path="url(#p13be516944)"
       d="m 414.471,63.8609 c 7.013,0 13.741,-2.7865 18.7,-7.7459 4.959,-4.9594 7.746,-11.6867 7.746,-18.7003 0,-7.0136 -2.787,-13.7409 -7.746,-18.7002 -4.959,-4.9594 -11.687,-7.7459 -18.7,-7.7459 -7.014,0 -13.741,2.7865 -18.7,7.7459 -4.96,4.9593 -7.746,11.6866 -7.746,18.7002 0,7.0136 2.786,13.7409 7.746,18.7003 4.959,4.9594 11.686,7.7459 18.7,7.7459 z"
       style="fill:none;stroke:#0000ff;stroke-width:4;stroke-linecap:butt;stroke-linejoin:round"
       id="path4759"
       inkscape:connector-curvature="0" />
  </g>
  <g
     id="patch_10"
     style="stroke-linecap:butt;stroke-linejoin:round">
    <path
       clip-path="url(#p13be516944)"
       d="m 414.471,67.1667 c 0.876,0 1.717,-0.3484 2.337,-0.9683 0.62,-0.6199 0.969,-1.4608 0.969,-2.3375 0,-0.8767 -0.349,-1.7176 -0.969,-2.3375 -0.62,-0.62 -1.461,-0.9683 -2.337,-0.9683 -0.877,0 -1.718,0.3483 -2.338,0.9683 -0.62,0.6199 -0.968,1.4608 -0.968,2.3375 0,0.8767 0.348,1.7176 0.968,2.3375 0.62,0.6199 1.461,0.9683 2.338,0.9683 z"
       style="fill:#ffffff;stroke:#ffffff;stroke-linecap:butt;stroke-linejoin:round"
       id="path4762"
       inkscape:connector-curvature="0" />
  </g>
  <g
     id="patch_11"
     style="stroke-linecap:butt;stroke-linejoin:round">
    <path
       clip-path="url(#p13be516944)"
       d="m 414.471,199.397 c 0.876,0 1.717,-0.348 2.337,-0.968 0.62,-0.62 0.969,-1.461 0.969,-2.337 0,-0.877 -0.349,-1.718 -0.969,-2.338 -0.62,-0.62 -1.461,-0.968 -2.337,-0.968 -0.877,0 -1.718,0.348 -2.338,0.968 -0.62,0.62 -0.968,1.461 -0.968,2.338 0,0.876 0.348,1.717 0.968,2.337 0.62,0.62 1.461,0.968 2.338,0.968 z"
       style="fill:#ffffff;stroke:#ffffff;stroke-linecap:butt;stroke-linejoin:round"
       id="path4765"
       inkscape:connector-curvature="0" />
  </g>
  <g
     id="patch_12"
     style="stroke-linecap:butt;stroke-linejoin:round">
    <path
       clip-path="url(#p13be516944)"
       d="m 150.009,133.282 c 0.877,0 1.718,-0.348 2.338,-0.968 0.62,-0.62 0.968,-1.461 0.968,-2.338 0,-0.876 -0.348,-1.717 -0.968,-2.337 -0.62,-0.62 -1.461,-0.968 -2.338,-0.968 -0.876,0 -1.717,0.348 -2.337,0.968 -0.62,0.62 -0.969,1.461 -0.969,2.337 0,0.877 0.349,1.718 0.969,2.338 0.62,0.62 1.461,0.968 2.337,0.968 z"
       style="fill:none;stroke:#000000;stroke-width:2;stroke-linecap:butt;stroke-linejoin:round"
       id="path4768"
       inkscape:connector-curvature="0" />
  </g>
  <g
     id="patch_13"
     style="stroke-linecap:butt;stroke-linejoin:round">
    <path
       clip-path="url(#p13be516944)"
       d="m 150.009,67.1667 c 0.877,0 1.718,-0.3484 2.338,-0.9683 0.62,-0.6199 0.968,-1.4608 0.968,-2.3375 0,-0.8767 -0.348,-1.7176 -0.968,-2.3375 -0.62,-0.62 -1.461,-0.9683 -2.338,-0.9683 -0.876,0 -1.717,0.3483 -2.337,0.9683 -0.62,0.6199 -0.969,1.4608 -0.969,2.3375 0,0.8767 0.349,1.7176 0.969,2.3375 0.62,0.6199 1.461,0.9683 2.337,0.9683 z"
       style="fill:none;stroke:#000000;stroke-width:2;stroke-linecap:butt;stroke-linejoin:round"
       id="path4771"
       inkscape:connector-curvature="0" />
  </g>
  <g
     id="patch_14"
     style="stroke-linecap:butt;stroke-linejoin:round">
    <path
       clip-path="url(#p13be516944)"
       d="m 414.471,67.1667 c 0.876,0 1.717,-0.3484 2.337,-0.9683 0.62,-0.6199 0.969,-1.4608 0.969,-2.3375 0,-0.8767 -0.349,-1.7176 -0.969,-2.3375 -0.62,-0.62 -1.461,-0.9683 -2.337,-0.9683 -0.877,0 -1.718,0.3483 -2.338,0.9683 -0.62,0.6199 -0.968,1.4608 -0.968,2.3375 0,0.8767 0.348,1.7176 0.968,2.3375 0.62,0.6199 1.461,0.9683 2.338,0.9683 z"
       style="fill:none;stroke:#000000;stroke-width:2;stroke-linecap:butt;stroke-linejoin:round"
       id="path4774"
       inkscape:connector-curvature="0" />
  </g>
  <g
     id="patch_15"
     style="stroke-linecap:butt;stroke-linejoin:round">
    <path
       clip-path="url(#p13be516944)"
       d="m 414.471,199.397 c 0.876,0 1.717,-0.348 2.337,-0.968 0.62,-0.62 0.969,-1.461 0.969,-2.337 0,-0.877 -0.349,-1.718 -0.969,-2.338 -0.62,-0.62 -1.461,-0.968 -2.337,-0.968 -0.877,0 -1.718,0.348 -2.338,0.968 -0.62,0.62 -0.968,1.461 -0.968,2.338 0,0.876 0.348,1.717 0.968,2.337 0.62,0.62 1.461,0.968 2.338,0.968 z"
       style="fill:none;stroke:#000000;stroke-width:2;stroke-linecap:butt;stroke-linejoin:round"
       id="path4777"
       inkscape:connector-curvature="0" />
  </g>
  <defs
     id="defs4779">
    <clipPath
       id="p13be516944">
      <rect
         height="195.966"
         width="550.08"
         x="7.2"
         y="7.2"
         id="rect4782" />
    </clipPath>
  </defs>
</svg>
