<?xml version="1.0" encoding="UTF-8" standalone="no"?>
<!-- Created with matplotlib (http://matplotlib.org/) -->

<svg
   xmlns:dc="http://purl.org/dc/elements/1.1/"
   xmlns:cc="http://creativecommons.org/ns#"
   xmlns:rdf="http://www.w3.org/1999/02/22-rdf-syntax-ns#"
   xmlns:svg="http://www.w3.org/2000/svg"
   xmlns="http://www.w3.org/2000/svg"
   xmlns:sodipodi="http://sodipodi.sourceforge.net/DTD/sodipodi-0.dtd"
   xmlns:inkscape="http://www.inkscape.org/namespaces/inkscape"
   height="420pt"
   version="1.1"
   viewBox="0 0 285 420"
   width="285pt"
   id="svg5518"
   inkscape:version="0.91 r13725"
   sodipodi:docname="blue_advantage_despite_reds_more_sticks.svg">
  <metadata
     id="metadata5604">
    <rdf:RDF>
      <cc:Work
         rdf:about="">
        <dc:format>image/svg+xml</dc:format>
        <dc:type
           rdf:resource="http://purl.org/dc/dcmitype/StillImage" />
      </cc:Work>
    </rdf:RDF>
  </metadata>
  <sodipodi:namedview
     pagecolor="#ffffff"
     bordercolor="#666666"
     borderopacity="1"
     objecttolerance="10"
     gridtolerance="10"
     guidetolerance="10"
     inkscape:pageopacity="0"
     inkscape:pageshadow="2"
     inkscape:window-width="1276"
     inkscape:window-height="755"
     id="namedview5602"
     showgrid="false"
     inkscape:zoom="1.0533333"
     inkscape:cx="178.125"
     inkscape:cy="262.5"
     inkscape:window-x="4"
     inkscape:window-y="1"
     inkscape:window-maximized="1"
     inkscape:current-layer="svg5518" />
  <defs
     id="defs5520">
    <style
       type="text/css"
       id="style5522">
*{stroke-linecap:butt;stroke-linejoin:round;}
  </style>
  </defs>
  <g
     id="line2d_1"
     style="stroke-linecap:butt;stroke-linejoin:round">
    <path
       clip-path="url(#p94e78c1e94)"
       d="m 12.4062,405.471 260.3078,0"
       style="fill:none;stroke:#000000;stroke-width:2;stroke-linecap:square;stroke-linejoin:round"
       id="path5533"
       inkscape:connector-curvature="0" />
  </g>
  <g
     id="line2d_2"
     style="stroke-linecap:butt;stroke-linejoin:round">
    <path
       clip-path="url(#p94e78c1e94)"
       d="m 90.4985,405.471 0,-78.093"
       style="fill:none;stroke:#0000ff;stroke-width:4;stroke-linecap:square;stroke-linejoin:round"
       id="path5536"
       inkscape:connector-curvature="0" />
  </g>
  <g
     id="line2d_3"
     style="stroke-linecap:butt;stroke-linejoin:round">
    <path
       clip-path="url(#p94e78c1e94)"
       d="m 90.4985,327.378 0,-78.092"
       style="fill:none;stroke:#ff0000;stroke-width:4;stroke-linecap:square;stroke-linejoin:round"
       id="path5539"
       inkscape:connector-curvature="0" />
  </g>
  <g
     id="line2d_4"
     style="stroke-linecap:butt;stroke-linejoin:round">
    <path
       clip-path="url(#p94e78c1e94)"
       d="m 90.4985,171.194 0,78.092"
       style="fill:none;stroke:#0000ff;stroke-width:4;stroke-linecap:square;stroke-linejoin:round"
       id="path5542"
       inkscape:connector-curvature="0" />
  </g>
  <g
     id="line2d_5"
     style="stroke-linecap:butt;stroke-linejoin:round">
    <path
       clip-path="url(#p94e78c1e94)"
       d="m 194.622,405.471 0,-78.093"
       style="fill:none;stroke:#0000ff;stroke-width:4;stroke-linecap:square;stroke-linejoin:round"
       id="path5545"
       inkscape:connector-curvature="0" />
  </g>
  <g
     id="line2d_6"
     style="stroke-linecap:butt;stroke-linejoin:round">
    <path
       clip-path="url(#p94e78c1e94)"
       d="m 194.622,249.286 0,78.092"
       style="fill:none;stroke:#ff0000;stroke-width:4;stroke-linecap:square;stroke-linejoin:round"
       id="path5548"
       inkscape:connector-curvature="0" />
  </g>
  <g
     id="line2d_7"
     style="stroke-linecap:butt;stroke-linejoin:round">
    <path
       clip-path="url(#p94e78c1e94)"
       d="m 194.622,249.286 0,-78.092"
       style="fill:none;stroke:#ff0000;stroke-width:4;stroke-linecap:square;stroke-linejoin:round"
       id="path5551"
       inkscape:connector-curvature="0" />
  </g>
  <g
     id="line2d_8"
     style="stroke-linecap:butt;stroke-linejoin:round">
    <path
       clip-path="url(#p94e78c1e94)"
       d="m 194.622,93.1015 0,78.0925"
       style="fill:none;stroke:#ff0000;stroke-width:4;stroke-linecap:square;stroke-linejoin:round"
       id="path5554"
       inkscape:connector-curvature="0" />
  </g>
  <g
     id="line2d_9"
     style="stroke-linecap:butt;stroke-linejoin:round">
    <path
       clip-path="url(#p94e78c1e94)"
       d="m 194.622,93.1015 0,-78.0923"
       style="fill:none;stroke:#ff0000;stroke-width:4;stroke-linecap:square;stroke-linejoin:round"
       id="path5557"
       inkscape:connector-curvature="0" />
  </g>
  <g
     id="matplotlib.axis_1"
     style="stroke-linecap:butt;stroke-linejoin:round" />
  <g
     id="matplotlib.axis_2"
     style="stroke-linecap:butt;stroke-linejoin:round" />
  <g
     id="patch_3"
     style="stroke-linecap:butt;stroke-linejoin:round">
    <path
       clip-path="url(#p94e78c1e94)"
       d="m 90.4985,330.632 c 0.8629,0 1.6906,-0.343 2.3008,-0.953 0.6102,-0.61 0.953,-1.438 0.953,-2.301 0,-0.862 -0.3428,-1.69 -0.953,-2.3 -0.6102,-0.611 -1.4379,-0.953 -2.3008,-0.953 -0.863,0 -1.6907,0.342 -2.3009,0.953 -0.6101,0.61 -0.953,1.438 -0.953,2.3 0,0.863 0.3429,1.691 0.953,2.301 0.6102,0.61 1.4379,0.953 2.3009,0.953 z"
       style="fill:#ffffff;stroke:#ffffff;stroke-linecap:butt;stroke-linejoin:round"
       id="path5562"
       inkscape:connector-curvature="0" />
  </g>
  <g
     id="patch_4"
     style="stroke-linecap:butt;stroke-linejoin:round">
    <path
       clip-path="url(#p94e78c1e94)"
       d="m 90.4985,252.54 c 0.8629,0 1.6906,-0.343 2.3008,-0.953 0.6102,-0.61 0.953,-1.438 0.953,-2.301 0,-0.863 -0.3428,-1.69 -0.953,-2.301 -0.6102,-0.61 -1.4379,-0.953 -2.3008,-0.953 -0.863,0 -1.6907,0.343 -2.3009,0.953 -0.6101,0.611 -0.953,1.438 -0.953,2.301 0,0.863 0.3429,1.691 0.953,2.301 0.6102,0.61 1.4379,0.953 2.3009,0.953 z"
       style="fill:#ffffff;stroke:#ffffff;stroke-linecap:butt;stroke-linejoin:round"
       id="path5565"
       inkscape:connector-curvature="0" />
  </g>
  <g
     id="patch_5"
     style="stroke-linecap:butt;stroke-linejoin:round">
    <path
       clip-path="url(#p94e78c1e94)"
       d="m 194.622,330.632 c 0.862,0 1.69,-0.343 2.3,-0.953 0.611,-0.61 0.953,-1.438 0.953,-2.301 0,-0.862 -0.342,-1.69 -0.953,-2.3 -0.61,-0.611 -1.438,-0.953 -2.3,-0.953 -0.863,0 -1.691,0.342 -2.301,0.953 -0.61,0.61 -0.953,1.438 -0.953,2.3 0,0.863 0.343,1.691 0.953,2.301 0.61,0.61 1.438,0.953 2.301,0.953 z"
       style="fill:#ffffff;stroke:#ffffff;stroke-linecap:butt;stroke-linejoin:round"
       id="path5568"
       inkscape:connector-curvature="0" />
  </g>
  <g
     id="patch_6"
     style="stroke-linecap:butt;stroke-linejoin:round">
    <path
       clip-path="url(#p94e78c1e94)"
       d="m 194.622,252.54 c 0.862,0 1.69,-0.343 2.3,-0.953 0.611,-0.61 0.953,-1.438 0.953,-2.301 0,-0.863 -0.342,-1.69 -0.953,-2.301 -0.61,-0.61 -1.438,-0.953 -2.3,-0.953 -0.863,0 -1.691,0.343 -2.301,0.953 -0.61,0.611 -0.953,1.438 -0.953,2.301 0,0.863 0.343,1.691 0.953,2.301 0.61,0.61 1.438,0.953 2.301,0.953 z"
       style="fill:#ffffff;stroke:#ffffff;stroke-linecap:butt;stroke-linejoin:round"
       id="path5571"
       inkscape:connector-curvature="0" />
  </g>
  <g
     id="patch_7"
     style="stroke-linecap:butt;stroke-linejoin:round">
    <path
       clip-path="url(#p94e78c1e94)"
       d="m 194.622,174.448 c 0.862,0 1.69,-0.343 2.3,-0.953 0.611,-0.611 0.953,-1.438 0.953,-2.301 0,-0.863 -0.342,-1.691 -0.953,-2.301 -0.61,-0.61 -1.438,-0.953 -2.3,-0.953 -0.863,0 -1.691,0.343 -2.301,0.953 -0.61,0.61 -0.953,1.438 -0.953,2.301 0,0.863 0.343,1.69 0.953,2.301 0.61,0.61 1.438,0.953 2.301,0.953 z"
       style="fill:#ffffff;stroke:#ffffff;stroke-linecap:butt;stroke-linejoin:round"
       id="path5574"
       inkscape:connector-curvature="0" />
  </g>
  <g
     id="patch_8"
     style="stroke-linecap:butt;stroke-linejoin:round">
    <path
       clip-path="url(#p94e78c1e94)"
       d="m 194.622,96.3554 c 0.862,0 1.69,-0.3429 2.3,-0.953 0.611,-0.6102 0.953,-1.4379 0.953,-2.3009 0,-0.8629 -0.342,-1.6906 -0.953,-2.3008 -0.61,-0.6102 -1.438,-0.953 -2.3,-0.953 -0.863,0 -1.691,0.3428 -2.301,0.953 -0.61,0.6102 -0.953,1.4379 -0.953,2.3008 0,0.863 0.343,1.6907 0.953,2.3009 0.61,0.6101 1.438,0.953 2.301,0.953 z"
       style="fill:#ffffff;stroke:#ffffff;stroke-linecap:butt;stroke-linejoin:round"
       id="path5577"
       inkscape:connector-curvature="0" />
  </g>
  <g
     id="patch_9"
     style="stroke-linecap:butt;stroke-linejoin:round">
    <path
       clip-path="url(#p94e78c1e94)"
       d="m 90.4985,330.632 c 0.8629,0 1.6906,-0.343 2.3008,-0.953 0.6102,-0.61 0.953,-1.438 0.953,-2.301 0,-0.862 -0.3428,-1.69 -0.953,-2.3 -0.6102,-0.611 -1.4379,-0.953 -2.3008,-0.953 -0.863,0 -1.6907,0.342 -2.3009,0.953 -0.6101,0.61 -0.953,1.438 -0.953,2.3 0,0.863 0.3429,1.691 0.953,2.301 0.6102,0.61 1.4379,0.953 2.3009,0.953 z"
       style="fill:none;stroke:#000000;stroke-width:2;stroke-linecap:butt;stroke-linejoin:round"
       id="path5580"
       inkscape:connector-curvature="0" />
  </g>
  <g
     id="patch_10"
     style="stroke-linecap:butt;stroke-linejoin:round">
    <path
       clip-path="url(#p94e78c1e94)"
       d="m 90.4985,252.54 c 0.8629,0 1.6906,-0.343 2.3008,-0.953 0.6102,-0.61 0.953,-1.438 0.953,-2.301 0,-0.863 -0.3428,-1.69 -0.953,-2.301 -0.6102,-0.61 -1.4379,-0.953 -2.3008,-0.953 -0.863,0 -1.6907,0.343 -2.3009,0.953 -0.6101,0.611 -0.953,1.438 -0.953,2.301 0,0.863 0.3429,1.691 0.953,2.301 0.6102,0.61 1.4379,0.953 2.3009,0.953 z"
       style="fill:none;stroke:#000000;stroke-width:2;stroke-linecap:butt;stroke-linejoin:round"
       id="path5583"
       inkscape:connector-curvature="0" />
  </g>
  <g
     id="patch_11"
     style="stroke-linecap:butt;stroke-linejoin:round">
    <path
       clip-path="url(#p94e78c1e94)"
       d="m 194.622,330.632 c 0.862,0 1.69,-0.343 2.3,-0.953 0.611,-0.61 0.953,-1.438 0.953,-2.301 0,-0.862 -0.342,-1.69 -0.953,-2.3 -0.61,-0.611 -1.438,-0.953 -2.3,-0.953 -0.863,0 -1.691,0.342 -2.301,0.953 -0.61,0.61 -0.953,1.438 -0.953,2.3 0,0.863 0.343,1.691 0.953,2.301 0.61,0.61 1.438,0.953 2.301,0.953 z"
       style="fill:none;stroke:#000000;stroke-width:2;stroke-linecap:butt;stroke-linejoin:round"
       id="path5586"
       inkscape:connector-curvature="0" />
  </g>
  <g
     id="patch_12"
     style="stroke-linecap:butt;stroke-linejoin:round">
    <path
       clip-path="url(#p94e78c1e94)"
       d="m 194.622,252.54 c 0.862,0 1.69,-0.343 2.3,-0.953 0.611,-0.61 0.953,-1.438 0.953,-2.301 0,-0.863 -0.342,-1.69 -0.953,-2.301 -0.61,-0.61 -1.438,-0.953 -2.3,-0.953 -0.863,0 -1.691,0.343 -2.301,0.953 -0.61,0.611 -0.953,1.438 -0.953,2.301 0,0.863 0.343,1.691 0.953,2.301 0.61,0.61 1.438,0.953 2.301,0.953 z"
       style="fill:none;stroke:#000000;stroke-width:2;stroke-linecap:butt;stroke-linejoin:round"
       id="path5589"
       inkscape:connector-curvature="0" />
  </g>
  <g
     id="patch_13"
     style="stroke-linecap:butt;stroke-linejoin:round">
    <path
       clip-path="url(#p94e78c1e94)"
       d="m 194.622,174.448 c 0.862,0 1.69,-0.343 2.3,-0.953 0.611,-0.611 0.953,-1.438 0.953,-2.301 0,-0.863 -0.342,-1.691 -0.953,-2.301 -0.61,-0.61 -1.438,-0.953 -2.3,-0.953 -0.863,0 -1.691,0.343 -2.301,0.953 -0.61,0.61 -0.953,1.438 -0.953,2.301 0,0.863 0.343,1.69 0.953,2.301 0.61,0.61 1.438,0.953 2.301,0.953 z"
       style="fill:none;stroke:#000000;stroke-width:2;stroke-linecap:butt;stroke-linejoin:round"
       id="path5592"
       inkscape:connector-curvature="0" />
  </g>
  <g
     id="patch_14"
     style="stroke-linecap:butt;stroke-linejoin:round">
    <path
       clip-path="url(#p94e78c1e94)"
       d="m 194.622,96.3554 c 0.862,0 1.69,-0.3429 2.3,-0.953 0.611,-0.6102 0.953,-1.4379 0.953,-2.3009 0,-0.8629 -0.342,-1.6906 -0.953,-2.3008 -0.61,-0.6102 -1.438,-0.953 -2.3,-0.953 -0.863,0 -1.691,0.3428 -2.301,0.953 -0.61,0.6102 -0.953,1.4379 -0.953,2.3008 0,0.863 0.343,1.6907 0.953,2.3009 0.61,0.6101 1.438,0.953 2.301,0.953 z"
       style="fill:none;stroke:#000000;stroke-width:2;stroke-linecap:butt;stroke-linejoin:round"
       id="path5595"
       inkscape:connector-curvature="0" />
  </g>
  <defs
     id="defs5597">
    <clipPath
       id="p94e78c1e94">
      <rect
         height="406.08"
         width="270.72"
         x="7.2"
         y="7.2"
         id="rect5600" />
    </clipPath>
  </defs>
</svg>
