<?xml version="1.0" encoding="UTF-8" standalone="no"?>
<!-- Created with matplotlib (http://matplotlib.org/) -->

<svg
   xmlns:dc="http://purl.org/dc/elements/1.1/"
   xmlns:cc="http://creativecommons.org/ns#"
   xmlns:rdf="http://www.w3.org/1999/02/22-rdf-syntax-ns#"
   xmlns:svg="http://www.w3.org/2000/svg"
   xmlns="http://www.w3.org/2000/svg"
   xmlns:sodipodi="http://sodipodi.sourceforge.net/DTD/sodipodi-0.dtd"
   xmlns:inkscape="http://www.inkscape.org/namespaces/inkscape"
   height="420pt"
   version="1.1"
   viewBox="0 0 465 420"
   width="465pt"
   id="svg4539"
   inkscape:version="0.91 r13725"
   sodipodi:docname="red_blue_red_stalk_and_blue_red_blue_stalk.svg">
  <metadata
     id="metadata4649">
    <rdf:RDF>
      <cc:Work
         rdf:about="">
        <dc:format>image/svg+xml</dc:format>
        <dc:type
           rdf:resource="http://purl.org/dc/dcmitype/StillImage" />
      </cc:Work>
    </rdf:RDF>
  </metadata>
  <sodipodi:namedview
     pagecolor="#ffffff"
     bordercolor="#666666"
     borderopacity="1"
     objecttolerance="10"
     gridtolerance="10"
     guidetolerance="10"
     inkscape:pageopacity="0"
     inkscape:pageshadow="2"
     inkscape:window-width="1276"
     inkscape:window-height="755"
     id="namedview4647"
     showgrid="false"
     inkscape:zoom="1.0533333"
     inkscape:cx="290.625"
     inkscape:cy="262.5"
     inkscape:window-x="4"
     inkscape:window-y="1"
     inkscape:window-maximized="1"
     inkscape:current-layer="svg4539" />
  <defs
     id="defs4541">
    <style
       type="text/css"
       id="style4543">
*{stroke-linecap:butt;stroke-linejoin:round;}
  </style>
  </defs>
  <g
     id="line2d_1"
     style="stroke-linecap:butt;stroke-linejoin:round">
    <path
       clip-path="url(#p7d594a5cec)"
       d="m 15.8769,405.471 433.8461,0"
       style="fill:none;stroke:#000000;stroke-width:2;stroke-linecap:square;stroke-linejoin:round"
       id="path4554"
       inkscape:connector-curvature="0" />
  </g>
  <g
     id="line2d_2"
     style="stroke-linecap:butt;stroke-linejoin:round">
    <path
       clip-path="url(#p7d594a5cec)"
       d="m 146.031,405.471 0,-130.154"
       style="fill:none;stroke:#ff0000;stroke-width:4;stroke-linecap:square;stroke-linejoin:round"
       id="path4557"
       inkscape:connector-curvature="0" />
  </g>
  <g
     id="line2d_3"
     style="stroke-linecap:butt;stroke-linejoin:round">
    <path
       clip-path="url(#p7d594a5cec)"
       d="m 146.031,145.163 0,130.154"
       style="fill:none;stroke:#0000ff;stroke-width:4;stroke-linecap:square;stroke-linejoin:round"
       id="path4560"
       inkscape:connector-curvature="0" />
  </g>
  <g
     id="line2d_4"
     style="stroke-linecap:butt;stroke-linejoin:round">
    <path
       clip-path="url(#p7d594a5cec)"
       d="m 146.031,145.163 0,-130.1538"
       style="fill:none;stroke:#ff0000;stroke-width:4;stroke-linecap:square;stroke-linejoin:round"
       id="path4563"
       inkscape:connector-curvature="0" />
  </g>
  <g
     id="line2d_5"
     style="stroke-linecap:butt;stroke-linejoin:round">
    <path
       clip-path="url(#p7d594a5cec)"
       d="m 319.569,405.471 0,-130.154"
       style="fill:none;stroke:#ff0000;stroke-width:4;stroke-linecap:square;stroke-linejoin:round"
       id="path4566"
       inkscape:connector-curvature="0" />
  </g>
  <g
     id="line2d_6"
     style="stroke-linecap:butt;stroke-linejoin:round">
    <path
       clip-path="url(#p7d594a5cec)"
       d="m 319.569,145.163 0,130.154"
       style="fill:none;stroke:#0000ff;stroke-width:4;stroke-linecap:square;stroke-linejoin:round"
       id="path4569"
       inkscape:connector-curvature="0" />
  </g>
  <g
     id="line2d_7"
     style="stroke-linecap:butt;stroke-linejoin:round">
    <path
       clip-path="url(#p7d594a5cec)"
       d="m 319.569,145.163 0,-130.1538"
       style="fill:none;stroke:#ff0000;stroke-width:4;stroke-linecap:square;stroke-linejoin:round"
       id="path4572"
       inkscape:connector-curvature="0" />
  </g>
  <g
     id="line2d_8"
     style="stroke-linecap:butt;stroke-linejoin:round">
    <path
       clip-path="url(#p7d594a5cec)"
       d="m 146.031,405.471 0,-130.154"
       style="fill:none;stroke:#ff0000;stroke-width:4;stroke-linecap:square;stroke-linejoin:round"
       id="path4575"
       inkscape:connector-curvature="0" />
  </g>
  <g
     id="line2d_9"
     style="stroke-linecap:butt;stroke-linejoin:round">
    <path
       clip-path="url(#p7d594a5cec)"
       d="m 146.031,145.163 0,130.154"
       style="fill:none;stroke:#0000ff;stroke-width:4;stroke-linecap:square;stroke-linejoin:round"
       id="path4578"
       inkscape:connector-curvature="0" />
  </g>
  <g
     id="line2d_10"
     style="stroke-linecap:butt;stroke-linejoin:round">
    <path
       clip-path="url(#p7d594a5cec)"
       d="m 146.031,145.163 0,-130.1538"
       style="fill:none;stroke:#ff0000;stroke-width:4;stroke-linecap:square;stroke-linejoin:round"
       id="path4581"
       inkscape:connector-curvature="0" />
  </g>
  <g
     id="line2d_11"
     style="stroke-linecap:butt;stroke-linejoin:round">
    <path
       clip-path="url(#p7d594a5cec)"
       d="m 319.569,405.471 0,-130.154"
       style="fill:none;stroke:#0000ff;stroke-width:4;stroke-linecap:square;stroke-linejoin:round"
       id="path4584"
       inkscape:connector-curvature="0" />
  </g>
  <g
     id="line2d_12"
     style="stroke-linecap:butt;stroke-linejoin:round">
    <path
       clip-path="url(#p7d594a5cec)"
       d="m 319.569,145.163 0,130.154"
       style="fill:none;stroke:#ff0000;stroke-width:4;stroke-linecap:square;stroke-linejoin:round"
       id="path4587"
       inkscape:connector-curvature="0" />
  </g>
  <g
     id="line2d_13"
     style="stroke-linecap:butt;stroke-linejoin:round">
    <path
       clip-path="url(#p7d594a5cec)"
       d="m 319.569,145.163 0,-130.1538"
       style="fill:none;stroke:#0000ff;stroke-width:4;stroke-linecap:square;stroke-linejoin:round"
       id="path4590"
       inkscape:connector-curvature="0" />
  </g>
  <g
     id="matplotlib.axis_1"
     style="stroke-linecap:butt;stroke-linejoin:round" />
  <g
     id="matplotlib.axis_2"
     style="stroke-linecap:butt;stroke-linejoin:round" />
  <g
     id="patch_3"
     style="stroke-linecap:butt;stroke-linejoin:round">
    <path
       clip-path="url(#p7d594a5cec)"
       d="m 146.031,280.74 c 1.438,0 2.817,-0.571 3.834,-1.588 1.017,-1.017 1.589,-2.397 1.589,-3.835 0,-1.438 -0.572,-2.818 -1.589,-3.835 -1.017,-1.017 -2.396,-1.588 -3.834,-1.588 -1.438,0 -2.818,0.571 -3.835,1.588 -1.017,1.017 -1.588,2.397 -1.588,3.835 0,1.438 0.571,2.818 1.588,3.835 1.017,1.017 2.397,1.588 3.835,1.588 z"
       style="fill:#ffffff;stroke:#ffffff;stroke-linecap:butt;stroke-linejoin:round"
       id="path4595"
       inkscape:connector-curvature="0" />
  </g>
  <g
     id="patch_4"
     style="stroke-linecap:butt;stroke-linejoin:round">
    <path
       clip-path="url(#p7d594a5cec)"
       d="m 146.031,150.586 c 1.438,0 2.817,-0.571 3.834,-1.588 1.017,-1.017 1.589,-2.397 1.589,-3.835 0,-1.438 -0.572,-2.818 -1.589,-3.835 -1.017,-1.017 -2.396,-1.588 -3.834,-1.588 -1.438,0 -2.818,0.571 -3.835,1.588 -1.017,1.017 -1.588,2.397 -1.588,3.835 0,1.438 0.571,2.818 1.588,3.835 1.017,1.017 2.397,1.588 3.835,1.588 z"
       style="fill:#ffffff;stroke:#ffffff;stroke-linecap:butt;stroke-linejoin:round"
       id="path4598"
       inkscape:connector-curvature="0" />
  </g>
  <g
     id="patch_5"
     style="stroke-linecap:butt;stroke-linejoin:round">
    <path
       clip-path="url(#p7d594a5cec)"
       d="m 319.569,280.74 c 1.438,0 2.818,-0.571 3.835,-1.588 1.017,-1.017 1.588,-2.397 1.588,-3.835 0,-1.438 -0.571,-2.818 -1.588,-3.835 -1.017,-1.017 -2.397,-1.588 -3.835,-1.588 -1.438,0 -2.817,0.571 -3.834,1.588 -1.017,1.017 -1.589,2.397 -1.589,3.835 0,1.438 0.572,2.818 1.589,3.835 1.017,1.017 2.396,1.588 3.834,1.588 z"
       style="fill:#ffffff;stroke:#ffffff;stroke-linecap:butt;stroke-linejoin:round"
       id="path4601"
       inkscape:connector-curvature="0" />
  </g>
  <g
     id="patch_6"
     style="stroke-linecap:butt;stroke-linejoin:round">
    <path
       clip-path="url(#p7d594a5cec)"
       d="m 319.569,150.586 c 1.438,0 2.818,-0.571 3.835,-1.588 1.017,-1.017 1.588,-2.397 1.588,-3.835 0,-1.438 -0.571,-2.818 -1.588,-3.835 -1.017,-1.017 -2.397,-1.588 -3.835,-1.588 -1.438,0 -2.817,0.571 -3.834,1.588 -1.017,1.017 -1.589,2.397 -1.589,3.835 0,1.438 0.572,2.818 1.589,3.835 1.017,1.017 2.396,1.588 3.834,1.588 z"
       style="fill:#ffffff;stroke:#ffffff;stroke-linecap:butt;stroke-linejoin:round"
       id="path4604"
       inkscape:connector-curvature="0" />
  </g>
  <g
     id="patch_7"
     style="stroke-linecap:butt;stroke-linejoin:round">
    <path
       clip-path="url(#p7d594a5cec)"
       d="m 146.031,280.74 c 1.438,0 2.817,-0.571 3.834,-1.588 1.017,-1.017 1.589,-2.397 1.589,-3.835 0,-1.438 -0.572,-2.818 -1.589,-3.835 -1.017,-1.017 -2.396,-1.588 -3.834,-1.588 -1.438,0 -2.818,0.571 -3.835,1.588 -1.017,1.017 -1.588,2.397 -1.588,3.835 0,1.438 0.571,2.818 1.588,3.835 1.017,1.017 2.397,1.588 3.835,1.588 z"
       style="fill:#ffffff;stroke:#ffffff;stroke-linecap:butt;stroke-linejoin:round"
       id="path4607"
       inkscape:connector-curvature="0" />
  </g>
  <g
     id="patch_8"
     style="stroke-linecap:butt;stroke-linejoin:round">
    <path
       clip-path="url(#p7d594a5cec)"
       d="m 146.031,150.586 c 1.438,0 2.817,-0.571 3.834,-1.588 1.017,-1.017 1.589,-2.397 1.589,-3.835 0,-1.438 -0.572,-2.818 -1.589,-3.835 -1.017,-1.017 -2.396,-1.588 -3.834,-1.588 -1.438,0 -2.818,0.571 -3.835,1.588 -1.017,1.017 -1.588,2.397 -1.588,3.835 0,1.438 0.571,2.818 1.588,3.835 1.017,1.017 2.397,1.588 3.835,1.588 z"
       style="fill:#ffffff;stroke:#ffffff;stroke-linecap:butt;stroke-linejoin:round"
       id="path4610"
       inkscape:connector-curvature="0" />
  </g>
  <g
     id="patch_9"
     style="stroke-linecap:butt;stroke-linejoin:round">
    <path
       clip-path="url(#p7d594a5cec)"
       d="m 319.569,280.74 c 1.438,0 2.818,-0.571 3.835,-1.588 1.017,-1.017 1.588,-2.397 1.588,-3.835 0,-1.438 -0.571,-2.818 -1.588,-3.835 -1.017,-1.017 -2.397,-1.588 -3.835,-1.588 -1.438,0 -2.817,0.571 -3.834,1.588 -1.017,1.017 -1.589,2.397 -1.589,3.835 0,1.438 0.572,2.818 1.589,3.835 1.017,1.017 2.396,1.588 3.834,1.588 z"
       style="fill:#ffffff;stroke:#ffffff;stroke-linecap:butt;stroke-linejoin:round"
       id="path4613"
       inkscape:connector-curvature="0" />
  </g>
  <g
     id="patch_10"
     style="stroke-linecap:butt;stroke-linejoin:round">
    <path
       clip-path="url(#p7d594a5cec)"
       d="m 319.569,150.586 c 1.438,0 2.818,-0.571 3.835,-1.588 1.017,-1.017 1.588,-2.397 1.588,-3.835 0,-1.438 -0.571,-2.818 -1.588,-3.835 -1.017,-1.017 -2.397,-1.588 -3.835,-1.588 -1.438,0 -2.817,0.571 -3.834,1.588 -1.017,1.017 -1.589,2.397 -1.589,3.835 0,1.438 0.572,2.818 1.589,3.835 1.017,1.017 2.396,1.588 3.834,1.588 z"
       style="fill:#ffffff;stroke:#ffffff;stroke-linecap:butt;stroke-linejoin:round"
       id="path4616"
       inkscape:connector-curvature="0" />
  </g>
  <g
     id="patch_11"
     style="stroke-linecap:butt;stroke-linejoin:round">
    <path
       clip-path="url(#p7d594a5cec)"
       d="m 146.031,280.74 c 1.438,0 2.817,-0.571 3.834,-1.588 1.017,-1.017 1.589,-2.397 1.589,-3.835 0,-1.438 -0.572,-2.818 -1.589,-3.835 -1.017,-1.017 -2.396,-1.588 -3.834,-1.588 -1.438,0 -2.818,0.571 -3.835,1.588 -1.017,1.017 -1.588,2.397 -1.588,3.835 0,1.438 0.571,2.818 1.588,3.835 1.017,1.017 2.397,1.588 3.835,1.588 z"
       style="fill:none;stroke:#000000;stroke-width:2;stroke-linecap:butt;stroke-linejoin:round"
       id="path4619"
       inkscape:connector-curvature="0" />
  </g>
  <g
     id="patch_12"
     style="stroke-linecap:butt;stroke-linejoin:round">
    <path
       clip-path="url(#p7d594a5cec)"
       d="m 146.031,150.586 c 1.438,0 2.817,-0.571 3.834,-1.588 1.017,-1.017 1.589,-2.397 1.589,-3.835 0,-1.438 -0.572,-2.818 -1.589,-3.835 -1.017,-1.017 -2.396,-1.588 -3.834,-1.588 -1.438,0 -2.818,0.571 -3.835,1.588 -1.017,1.017 -1.588,2.397 -1.588,3.835 0,1.438 0.571,2.818 1.588,3.835 1.017,1.017 2.397,1.588 3.835,1.588 z"
       style="fill:none;stroke:#000000;stroke-width:2;stroke-linecap:butt;stroke-linejoin:round"
       id="path4622"
       inkscape:connector-curvature="0" />
  </g>
  <g
     id="patch_13"
     style="stroke-linecap:butt;stroke-linejoin:round">
    <path
       clip-path="url(#p7d594a5cec)"
       d="m 319.569,280.74 c 1.438,0 2.818,-0.571 3.835,-1.588 1.017,-1.017 1.588,-2.397 1.588,-3.835 0,-1.438 -0.571,-2.818 -1.588,-3.835 -1.017,-1.017 -2.397,-1.588 -3.835,-1.588 -1.438,0 -2.817,0.571 -3.834,1.588 -1.017,1.017 -1.589,2.397 -1.589,3.835 0,1.438 0.572,2.818 1.589,3.835 1.017,1.017 2.396,1.588 3.834,1.588 z"
       style="fill:none;stroke:#000000;stroke-width:2;stroke-linecap:butt;stroke-linejoin:round"
       id="path4625"
       inkscape:connector-curvature="0" />
  </g>
  <g
     id="patch_14"
     style="stroke-linecap:butt;stroke-linejoin:round">
    <path
       clip-path="url(#p7d594a5cec)"
       d="m 319.569,150.586 c 1.438,0 2.818,-0.571 3.835,-1.588 1.017,-1.017 1.588,-2.397 1.588,-3.835 0,-1.438 -0.571,-2.818 -1.588,-3.835 -1.017,-1.017 -2.397,-1.588 -3.835,-1.588 -1.438,0 -2.817,0.571 -3.834,1.588 -1.017,1.017 -1.589,2.397 -1.589,3.835 0,1.438 0.572,2.818 1.589,3.835 1.017,1.017 2.396,1.588 3.834,1.588 z"
       style="fill:none;stroke:#000000;stroke-width:2;stroke-linecap:butt;stroke-linejoin:round"
       id="path4628"
       inkscape:connector-curvature="0" />
  </g>
  <g
     id="patch_15"
     style="stroke-linecap:butt;stroke-linejoin:round">
    <path
       clip-path="url(#p7d594a5cec)"
       d="m 146.031,280.74 c 1.438,0 2.817,-0.571 3.834,-1.588 1.017,-1.017 1.589,-2.397 1.589,-3.835 0,-1.438 -0.572,-2.818 -1.589,-3.835 -1.017,-1.017 -2.396,-1.588 -3.834,-1.588 -1.438,0 -2.818,0.571 -3.835,1.588 -1.017,1.017 -1.588,2.397 -1.588,3.835 0,1.438 0.571,2.818 1.588,3.835 1.017,1.017 2.397,1.588 3.835,1.588 z"
       style="fill:none;stroke:#000000;stroke-width:2;stroke-linecap:butt;stroke-linejoin:round"
       id="path4631"
       inkscape:connector-curvature="0" />
  </g>
  <g
     id="patch_16"
     style="stroke-linecap:butt;stroke-linejoin:round">
    <path
       clip-path="url(#p7d594a5cec)"
       d="m 146.031,150.586 c 1.438,0 2.817,-0.571 3.834,-1.588 1.017,-1.017 1.589,-2.397 1.589,-3.835 0,-1.438 -0.572,-2.818 -1.589,-3.835 -1.017,-1.017 -2.396,-1.588 -3.834,-1.588 -1.438,0 -2.818,0.571 -3.835,1.588 -1.017,1.017 -1.588,2.397 -1.588,3.835 0,1.438 0.571,2.818 1.588,3.835 1.017,1.017 2.397,1.588 3.835,1.588 z"
       style="fill:none;stroke:#000000;stroke-width:2;stroke-linecap:butt;stroke-linejoin:round"
       id="path4634"
       inkscape:connector-curvature="0" />
  </g>
  <g
     id="patch_17"
     style="stroke-linecap:butt;stroke-linejoin:round">
    <path
       clip-path="url(#p7d594a5cec)"
       d="m 319.569,280.74 c 1.438,0 2.818,-0.571 3.835,-1.588 1.017,-1.017 1.588,-2.397 1.588,-3.835 0,-1.438 -0.571,-2.818 -1.588,-3.835 -1.017,-1.017 -2.397,-1.588 -3.835,-1.588 -1.438,0 -2.817,0.571 -3.834,1.588 -1.017,1.017 -1.589,2.397 -1.589,3.835 0,1.438 0.572,2.818 1.589,3.835 1.017,1.017 2.396,1.588 3.834,1.588 z"
       style="fill:none;stroke:#000000;stroke-width:2;stroke-linecap:butt;stroke-linejoin:round"
       id="path4637"
       inkscape:connector-curvature="0" />
  </g>
  <g
     id="patch_18"
     style="stroke-linecap:butt;stroke-linejoin:round">
    <path
       clip-path="url(#p7d594a5cec)"
       d="m 319.569,150.586 c 1.438,0 2.818,-0.571 3.835,-1.588 1.017,-1.017 1.588,-2.397 1.588,-3.835 0,-1.438 -0.571,-2.818 -1.588,-3.835 -1.017,-1.017 -2.397,-1.588 -3.835,-1.588 -1.438,0 -2.817,0.571 -3.834,1.588 -1.017,1.017 -1.589,2.397 -1.589,3.835 0,1.438 0.572,2.818 1.589,3.835 1.017,1.017 2.396,1.588 3.834,1.588 z"
       style="fill:none;stroke:#000000;stroke-width:2;stroke-linecap:butt;stroke-linejoin:round"
       id="path4640"
       inkscape:connector-curvature="0" />
  </g>
  <defs
     id="defs4642">
    <clipPath
       id="p7d594a5cec">
      <rect
         height="406.08"
         width="451.2"
         x="7.2"
         y="7.2"
         id="rect4645" />
    </clipPath>
  </defs>
</svg>
