<svg xmlns="http://www.w3.org/2000/svg" xmlns:xlink="http://www.w3.org/1999/xlink" width="230.6" height="120" viewBox="10 25 230.6 120"><title></title><style type="text/css">
#g1 circle.pindot {fill: none;stroke: none;pointer-events: fill;}#g1 rect, #g1 circle, #g1 ellipse, #g1 polyline, #g1 line, #g1 polygon, #g1 path {shape-rendering: crispEdges;}path, polyline, polygon {stroke-linejoin:round;}
path, polyline, polygon, line {stroke-linecap:round;}
rect, circle, ellipse, polyline, line, polygon, path {shape-rendering:crispEdges;}
</style>
<rect x="10" y="25" width="230.6" height="120" fill="#FFFFFF" stroke="none"/><g id="g1" c_spiceCmd="null" c_para="Prefix Start`1`" importFlag="0" c_portOfADImportHack="" c_transformList="" xmlns="http://www.w3.org/2000/svg"><g c_partid="part_annotation" id="gge333" c_origin="80,100" c_shapetype="group" c_etype="pinpart"><text x="80" y="100" fill="#0066CC" font-family="Verdana" font-size="9pt" font-weight="" font-style="" dominant-baseline="" text-anchor="start" type="comment"  >R</text></g><g c_origin="95,95" c_para="package`AXIAL-0.3`nameAlias`Value(&#x3a9;)`BOM_Manufacturer Part`?`spicePre`R`spiceSymbolName`Res_AXIAL-0.3(1/8W)_US`" c_partid="part_import_gge430" id="gge430" c_shapetype="group" c_etype="pinpart" c_rotation="90"><g c_partid="part_annotation" id="gge432" display="none"><text c_note="note_name" x="102" y="107.37" fill="#000000" font-family="Arial" font-size="7pt" font-weight="" font-style="" dominant-baseline="" text-anchor="start"  >1k</text></g><g c_partid="part_annotation" id="gge434" display="none"><text c_note="note_pre" x="102" y="98.15" fill="#000000" font-family="Arial" font-size="7pt" font-weight="" font-style="" dominant-baseline="" text-anchor="start"  >R5</text></g><polyline points="95 80 100 83" stroke="#000000" id="gge436" stroke-width="1"   fill="none" stroke-linecap="round" /><polyline points="90 88 100 93" stroke="#000000" id="gge437" stroke-width="1"   fill="none" stroke-linecap="round" /><polyline points="100 83 90 88" stroke="#000000" id="gge438" stroke-width="1"   fill="none" stroke-linecap="round" /><g c_partid="part_pin" c_etype="pinpart"  c_show="show"  c_elec="0" c_spicepin="2" c_origin="95,75" id="gge439" c_rotation="90"><circle c_pindot="true" class="pindot" cx="95" cy="75" r="2" fill="#4F4F4F" stroke="none" /><path d="M 95 75 v 5" fill="none" stroke="#000000" stroke-width="1"/><text x="95" y="84" font-family="Verdana" font-size="7pt" fill="#000000" text-anchor="end" display="none" transform="rotate(270,95,84)" >2</text><text x="91" y="76" font-family="Verdana" font-size="7pt" fill="#000000" text-anchor="start" display="none" transform="rotate(270,91,76)" >2</text><circle cx="95" cy="77" r="3" stroke="#000000" fill="none" stroke-width="1" display="none" /><path d="M 92 80 L 95 83 L 98 80" fill="none" stroke="#000000" stroke-width="1"  display="none" /></g><polyline points="100 102 90 107" stroke="#000000" id="gge446" stroke-width="1"   fill="none" stroke-linecap="round" /><polyline points="100 93 90 97" stroke="#000000" id="gge447" stroke-width="1"   fill="none" stroke-linecap="round" /><polyline points="90 97 100 102" stroke="#000000" id="gge448" stroke-width="1"   fill="none" stroke-linecap="round" /><polyline points="90 107 95 110" stroke="#000000" id="gge449" stroke-width="1"   fill="none" stroke-linecap="round" /><g c_partid="part_pin" c_etype="pinpart"  c_show="show"  c_elec="0" c_spicepin="1" c_origin="95,115" id="gge450" c_rotation="270"><circle c_pindot="true" class="pindot" cx="95" cy="115" r="2" fill="#4F4F4F" stroke="none" /><path d="M 95 115 v -5" fill="none" stroke="#000000" stroke-width="1"/><text x="95" y="106" font-family="Verdana" font-size="7pt" fill="#000000" text-anchor="start" display="none" transform="rotate(270,95,106)" >1</text><text x="91" y="114" font-family="Verdana" font-size="7pt" fill="#000000" text-anchor="end" display="none" transform="rotate(270,91,114)" >1</text><circle cx="95" cy="113" r="3" stroke="#000000" fill="none" stroke-width="1" display="none" /><path d="M 98 110 L 95 107 L 92 110" fill="none" stroke="#000000" stroke-width="1"  display="none" /></g></g><g c_partid="part_annotation" id="gge458" c_origin="20,100" c_shapetype="group" c_etype="pinpart"><text x="20" y="100" fill="#000000" font-family="helvetica" font-size="9pt" font-weight="" font-style="" dominant-baseline="" text-anchor="start" type="comment"  >1A</text></g><g c_origin="50,95" c_para="package`2P-5.08`nameAlias`Value`BOM_Manufacturer Part`?`spicePre`I`spiceSymbolName`Isin`" c_partid="part_import_gge464" id="gge464" c_shapetype="group" c_etype="pinpart" c_rotation="180"><g c_partid="part_annotation" id="gge466" display="none"><text c_note="note_name" x="62" y="107.37" fill="#000000" font-family="Arial" font-size="7pt" font-weight="" font-style="" dominant-baseline="" text-anchor="start"  >SIN(0 1 50)</text></g><g c_partid="part_annotation" id="gge468" display="none"><text c_note="note_pre" x="62" y="98.15" fill="#000000" font-family="Arial" font-size="7pt" font-weight="" font-style="" dominant-baseline="" text-anchor="start"  >I2</text></g><ellipse cx="50" cy="95" rx="10" ry="10" id="gge470" stroke="#000000" stroke-width="1" fill="none"   /><g c_partid="part_pin" c_etype="pinpart"  c_show="show"  c_elec="0" c_spicepin="2" c_origin="50,75" id="gge471" c_rotation="90"><circle c_pindot="true" class="pindot" cx="50" cy="75" r="2" fill="#4F4F4F" stroke="none" /><path d="M 50 85 v -10" fill="none" stroke="#000000" stroke-width="1"/><text x="50" y="89" font-family="Verdana" font-size="7pt" fill="#000000" text-anchor="end" display="none" transform="rotate(270,50,89)" >2</text><text x="46" y="81" font-family="Verdana" font-size="7pt" fill="#000000" text-anchor="start" display="none" transform="rotate(270,46,81)" >2</text><circle cx="50" cy="62" r="3" stroke="#000000" fill="none" stroke-width="1" display="none" /><path d="M 47 65 L 50 68 L 53 65" fill="none" stroke="#000000" stroke-width="1"  display="none" /></g><polyline points="50 87 52 89" stroke="#000000" id="gge478" stroke-width="1"   fill="none" stroke-linecap="round" /><polyline points="50 87 48 89" stroke="#000000" id="gge479" stroke-width="1"   fill="none" stroke-linecap="round" /><g c_partid="part_pin" c_etype="pinpart"  c_show="show"  c_elec="0" c_spicepin="1" c_origin="50,115" id="gge480" c_rotation="270"><circle c_pindot="true" class="pindot" cx="50" cy="115" r="2" fill="#4F4F4F" stroke="none" /><path d="M 50 105 v 10" fill="none" stroke="#000000" stroke-width="1"/><text x="50" y="103" font-family="Verdana" font-size="7pt" fill="#000000" text-anchor="start" display="none" transform="rotate(270,50,103)" >1</text><text x="46" y="109" font-family="Verdana" font-size="7pt" fill="#000000" text-anchor="end" display="none" transform="rotate(270,46,109)" >1</text><circle cx="50" cy="128" r="3" stroke="#000000" fill="none" stroke-width="1" display="none" /><path d="M 53 125 L 50 122 L 47 125" fill="none" stroke="#000000" stroke-width="1"  display="none" /></g><polyline points="50 87 50 103" stroke="#000000" id="gge487" stroke-width="1"   fill="none" stroke-linecap="round" /></g><g c_origin="140,95" c_para="package`RAD-0.1`nameAlias`Value(F)`BOM_Manufacturer Part`?`spicePre`C`spiceSymbolName`Cap_RAD-0.1_US`" c_partid="part_import_gge513" id="gge513" c_shapetype="group" c_etype="pinpart" ><g c_partid="part_annotation" id="gge515" display="none"><text c_note="note_name" x="150" y="107.37" fill="#000000" font-family="Arial" font-size="7pt" font-weight="" font-style="" dominant-baseline="" text-anchor="start"  >1u</text></g><g c_partid="part_annotation" id="gge517" display="none"><text c_note="note_pre" x="150" y="98.15" fill="#000000" font-family="Arial" font-size="7pt" font-weight="" font-style="" dominant-baseline="" text-anchor="start"  >C1</text></g><polyline points="148 97 132 97" stroke="#000000" id="gge519" stroke-width="1"   fill="none" stroke-linecap="round" /><g c_partid="part_pin" c_etype="pinpart"  c_show="show"  c_elec="0" c_spicepin="1" c_origin="140,115" id="gge520" c_rotation="270"><circle c_pindot="true" class="pindot" cx="140" cy="115" r="2" fill="#4F4F4F" stroke="none" /><path d="M 140 105 v 10" fill="none" stroke="#000000" stroke-width="1"/><text x="140" y="101" font-family="Verdana" font-size="7pt" fill="#000000" text-anchor="start" display="none" transform="rotate(270,140,101)" >1</text><text x="136" y="109" font-family="Verdana" font-size="7pt" fill="#000000" text-anchor="end" display="none" transform="rotate(270,136,109)" >1</text><circle cx="140" cy="128" r="3" stroke="#000000" fill="none" stroke-width="1" display="none" /><path d="M 143 125 L 140 122 L 137 125" fill="none" stroke="#000000" stroke-width="1"  display="none" /></g><polyline points="140 85 140 93" stroke="#000000" id="gge527" stroke-width="1"   fill="none" stroke-linecap="round" /><polyline points="132 93 148 93" stroke="#000000" id="gge528" stroke-width="1"   fill="none" stroke-linecap="round" /><g c_partid="part_pin" c_etype="pinpart"  c_show="show"  c_elec="0" c_spicepin="2" c_origin="140,75" id="gge529" c_rotation="90"><circle c_pindot="true" class="pindot" cx="140" cy="75" r="2" fill="#4F4F4F" stroke="none" /><path d="M 140 85 v -10" fill="none" stroke="#000000" stroke-width="1"/><text x="140" y="89" font-family="Verdana" font-size="7pt" fill="#000000" text-anchor="end" display="none" transform="rotate(270,140,89)" >2</text><text x="136" y="81" font-family="Verdana" font-size="7pt" fill="#000000" text-anchor="start" display="none" transform="rotate(270,136,81)" >2</text><circle cx="140" cy="62" r="3" stroke="#000000" fill="none" stroke-width="1" display="none" /><path d="M 137 65 L 140 68 L 143 65" fill="none" stroke="#000000" stroke-width="1"  display="none" /></g><polyline points="140 97 140 105" stroke="#000000" id="gge536" stroke-width="1"   fill="none" stroke-linecap="round" /></g><g c_origin="200,95" c_para="package`AXIAL-0.4`nameAlias`Value(H)`BOM_Manufacturer Part`?`spicePre`L`spiceSymbolName`Inductor`" c_partid="part_import_gge537" id="gge537" c_shapetype="group" c_etype="pinpart" c_rotation="90"><g c_partid="part_annotation" id="gge539" display="none"><text c_note="note_name" x="204" y="107.37" fill="#000000" font-family="Arial" font-size="7pt" font-weight="" font-style="" dominant-baseline="" text-anchor="start"  >1m</text></g><g c_partid="part_annotation" id="gge541" display="none"><text c_note="note_pre" x="204" y="98.15" fill="#000000" font-family="Arial" font-size="7pt" font-weight="" font-style="" dominant-baseline="" text-anchor="start"  >L1</text></g><g c_partid="part_pin" c_etype="pinpart"  c_show="show"  c_elec="0" c_spicepin="2" c_origin="200,75" id="gge543" c_rotation="90"><circle c_pindot="true" class="pindot" cx="200" cy="75" r="2" fill="#4F4F4F" stroke="none" /><path d="M 200 75 v 3" fill="none" stroke="#000000" stroke-width="1"/><text x="200" y="82" font-family="Verdana" font-size="7pt" fill="#000000" text-anchor="end" display="none" transform="rotate(270,200,82)" >2</text><text x="196" y="74" font-family="Verdana" font-size="7pt" fill="#000000" text-anchor="start" display="none" transform="rotate(270,196,74)" >2</text><circle cx="200" cy="75" r="3" stroke="#000000" fill="none" stroke-width="1" display="none" /><path d="M 197 78 L 200 81 L 203 78" fill="none" stroke="#000000" stroke-width="1"  display="none" /></g><g c_partid="part_pin" c_etype="pinpart"  c_show="show"  c_elec="0" c_spicepin="1" c_origin="200,115" id="gge550" c_rotation="270"><circle c_pindot="true" class="pindot" cx="200" cy="115" r="2" fill="#4F4F4F" stroke="none" /><path d="M 200 115 v -3" fill="none" stroke="#000000" stroke-width="1"/><text x="200" y="108" font-family="Verdana" font-size="7pt" fill="#000000" text-anchor="start" display="none" transform="rotate(270,200,108)" >1</text><text x="196" y="116" font-family="Verdana" font-size="7pt" fill="#000000" text-anchor="end" display="none" transform="rotate(270,196,116)" >1</text><circle cx="200" cy="115" r="3" stroke="#000000" fill="none" stroke-width="1" display="none" /><path d="M 203 112 L 200 109 L 197 112" fill="none" stroke="#000000" stroke-width="1"  display="none" /></g><path d="M 199.932 111.883 A 3.9 4 0 1 1 199.936 103.918" id="gge557"   stroke="#000000" stroke-width="1" c_helper_type="arc1" fill="none" /><path d="M 199.929 103.4 A 3.9 4 0 1 1 199.934 95.435" id="gge558"   stroke="#000000" stroke-width="1" c_helper_type="arc1" fill="none" /><path d="M 199.929 94.933 A 3.9 4 0 1 1 199.934 86.968" id="gge559"   stroke="#000000" stroke-width="1" c_helper_type="arc1" fill="none" /><path d="M 199.931 86.3 A 3.9 4 0 1 1 199.936 78.335" id="gge560"   stroke="#000000" stroke-width="1" c_helper_type="arc1" fill="none" /></g><polyline c_etype="wire" c_shapetype="line" points="50 75 50 60 155 60" stroke="#000000" id="gge563" stroke-width="1"   fill="none" stroke-linecap="round" /><polyline c_etype="wire" c_shapetype="line" points="200 115 200 130 160 130 50 130 50 115" stroke="#000000" id="gge564" stroke-width="1"   fill="none" stroke-linecap="round" /><polyline c_etype="wire" c_shapetype="line" points="95 75 95 60" stroke="#000000" id="gge567" stroke-width="1"   fill="none" stroke-linecap="round" /><polyline c_etype="wire" c_shapetype="line" points="95 115 95 130" stroke="#000000" id="gge569" stroke-width="1"   fill="none" stroke-linecap="round" /><g c_partid="part_annotation" id="gge589" c_origin="120,100" c_shapetype="group" c_etype="pinpart"><text x="120" y="100" fill="#0066CC" font-family="Verdana" font-size="9pt" font-weight="" font-style="" dominant-baseline="" text-anchor="start" type="comment"  >C</text></g><g c_partid="part_annotation" id="gge592" c_origin="185,100" c_shapetype="group" c_etype="pinpart"><text x="185" y="100" fill="#0066CC" font-family="Verdana" font-size="9pt" font-weight="" font-style="" dominant-baseline="" text-anchor="start" type="comment"  >L</text></g><polyline c_etype="wire" c_shapetype="line" points="140 75 140 60" stroke="#000000" id="gge608" stroke-width="1"   fill="none" stroke-linecap="round" /><polyline c_etype="wire" c_shapetype="line" points="140 115 140 130" stroke="#000000" id="gge610" stroke-width="1"   fill="none" stroke-linecap="round" /><ellipse cx="155" cy="60" rx="2.5" ry="2.5" id="gge614" stroke="#000000" stroke-width="1" fill="none" c_shapetype="line"  /><ellipse cx="180" cy="60" rx="2.5" ry="2.5" id="gge616" stroke="#000000" stroke-width="1" fill="none" c_shapetype="line"  /><g c_partid="part_busentry" c_origin="155,60" id="gge617" c_rotation="" c_shapetype="group" c_etype="pinpart"><circle c_pindot="true" class="pindot" cx="155" cy="60" r="2" fill="#4F4F4F" stroke="none"/><circle c_pindot="true" class="pindot" cx="165" cy="50" r="2" fill="#4F4F4F" stroke="none"/><line x1="155" y1="60" x2="165" y2="50" stroke="#000000" stroke-width="1"/></g><g c_partid="part_busentry" c_origin="165,50" id="gge621" c_rotation="" c_shapetype="group" c_etype="pinpart"><circle c_pindot="true" class="pindot" cx="165" cy="50" r="2" fill="#4F4F4F" stroke="none"/><circle c_pindot="true" class="pindot" cx="175" cy="40" r="2" fill="#4F4F4F" stroke="none"/><line x1="165" y1="50" x2="175" y2="40" stroke="#000000" stroke-width="1"/></g><polyline points="170 55 170 35" stroke="#000000" id="gge629" stroke-width="1" c_shapetype="line"  fill="none" stroke-linecap="round" /><polyline c_etype="wire" c_shapetype="line" points="200 75 200 60 180 60 180 60" stroke="#000000" id="gge630" stroke-width="1"   fill="none" stroke-linecap="round" /><g c_partid="part_annotation" id="gge636" c_origin="160,75" c_shapetype="group" c_etype="pinpart"><text x="160" y="75" fill="#000000" font-family="helvetica" font-size="7.5pt" font-weight="undefined" font-style="undefined" dominant-baseline="" text-anchor="start" type="comment"  >t = 0</text></g><g c_partid="part_annotation" id="gge639" c_origin="205,70" c_shapetype="group" c_etype="pinpart"><text x="205" y="70" fill="#FF3366" font-family="Verdana" font-size="9pt" font-weight="" font-style="" dominant-baseline="" text-anchor="start" type="comment"  >iL(t)</text></g><g c_partid="part_junction" c_etype="pinpart" c_origin="140,130" id="gge613" c_shapetype="group"><circle c_pindot="true" class="pindot" cx="140" cy="130" r="2" fill="#4F4F4F" stroke="none"/><circle cx="140" cy="130" r="2.5" fill="#000000" stroke-width="1"/></g><g c_partid="part_junction" c_etype="pinpart" c_origin="140,60" id="gge612" c_shapetype="group"><circle c_pindot="true" class="pindot" cx="140" cy="60" r="2" fill="#4F4F4F" stroke="none"/><circle cx="140" cy="60" r="2.5" fill="#000000" stroke-width="1"/></g><g c_partid="part_junction" c_etype="pinpart" c_origin="95,130" id="gge607" c_shapetype="group"><circle c_pindot="true" class="pindot" cx="95" cy="130" r="2" fill="#4F4F4F" stroke="none"/><circle cx="95" cy="130" r="2.5" fill="#000000" stroke-width="1"/></g><g c_partid="part_junction" c_etype="pinpart" c_origin="95,60" id="gge606" c_shapetype="group"><circle c_pindot="true" class="pindot" cx="95" cy="60" r="2" fill="#4F4F4F" stroke="none"/><circle cx="95" cy="60" r="2.5" fill="#000000" stroke-width="1"/></g><rect id="gge649" x="20" y="35"   width="210" height="100" stroke="#FFFFFF" stroke-width="1" fill="none" c_shapetype="line"  /><g c_partid="part_arrowhead" c_origin="175,40" id="gge626" c_rotation="45" c_shapetype="group" c_etype="pinpart"><path d="M 175 40 L 170.757 38.5858 L 177.121 37.8787 L 176.414 44.2426 Z " fill="#000000" stroke="none" style="shape-rendering:auto;"/></g><g c_partid="part_arrowhead" c_origin="170,55" id="gge628" c_rotation="270" c_shapetype="group" c_etype="pinpart"><path d="M 170 55 L 174 53 L 170 58 L 166 53 Z " fill="#000000" stroke="none" style="shape-rendering:auto;"/></g><g c_partid="part_arrowhead" c_origin="200,75" id="gge634" c_rotation="270" c_shapetype="group" c_etype="pinpart"><path d="M 200 75 L 204 73 L 200 78 L 196 73 Z " fill="#000000" stroke="none" style="shape-rendering:auto;"/></g></g></svg>